<?xml version="1.0" encoding="utf-8"?>
<svg id="master-artboard" viewBox="0 0 1400 1400" version="1.1" xmlns="http://www.w3.org/2000/svg" x="0px" y="0px" width="1400px" height="1400px" enable-background="new 0 0 1400 1400" xmlns:xlink="http://www.w3.org/1999/xlink">
<linearGradient id="XMLID_2_" gradientUnits="userSpaceOnUse" x1="700" y1="1387.051" x2="700" y2="15.5926">
	<stop offset="0" style="stop-color:#4FBBBF"/>
	<stop offset="6.008859e-002" style="stop-color:#4AB4BA"/>
	<stop offset="0.1457" style="stop-color:#3EA2AC"/>
	<stop offset="0.2097" style="stop-color:#318F9E"/>
	<stop offset="0.5914" style="stop-color:#4FBBBF"/>
	<stop offset="1" style="stop-color:#86D0D3"/>
</linearGradient>
<path d="M 0 0 H 1400 V 1398.300049 H 0 V 0 Z" id="XMLID_203_" fill="url(#XMLID_2_)" style="fill-opacity: 0;"/>
<radialGradient id="XMLID_3_" cx="615.4345" cy="1362.3292" r="131.0879" gradientTransform="matrix(1.072 0 0 0.1758 -262.3363 855.8935)" gradientUnits="userSpaceOnUse">
	<stop offset="0" style="stop-color:#226061"/>
	<stop offset="0.957" style="stop-color:#226061;stop-opacity:0"/>
</radialGradient>
<path d="M 537.899994 1095.400024 A 140.5 23 0 0 1 397.399994 1118.400024 A 140.5 23 0 0 1 256.899994 1095.400024 A 140.5 23 0 0 1 397.399994 1072.400024 A 140.5 23 0 0 1 537.899994 1095.400024 Z" id="XMLID_180_" fill="url(#XMLID_3_)"/>
<radialGradient id="XMLID_4_" cx="1254.5021" cy="1362.3292" r="131.0879" gradientTransform="matrix(1.072 0 0 0.1758 -262.3363 855.8935)" gradientUnits="userSpaceOnUse">
	<stop offset="0" style="stop-color:#226061"/>
	<stop offset="0.957" style="stop-color:#226061;stop-opacity:0"/>
</radialGradient>
<path d="M 1223 1095.400024 A 140.5 23 0 0 1 1082.5 1118.400024 A 140.5 23 0 0 1 942 1095.400024 A 140.5 23 0 0 1 1082.5 1072.400024 A 140.5 23 0 0 1 1223 1095.400024 Z" id="XMLID_183_" fill="url(#XMLID_4_)"/>
<g id="XMLID_176_">
	<g id="XMLID_3338_">
		<linearGradient id="XMLID_5_" gradientUnits="userSpaceOnUse" x1="633.5974" y1="527.7276" x2="573.1712" y2="376.662">
			<stop offset="5.913978e-002" style="stop-color:#FDCE95"/>
			<stop offset="1" style="stop-color:#FEE2C0"/>
		</linearGradient>
		<path id="XMLID_3378_" fill-rule="evenodd" clip-rule="evenodd" fill="url(#XMLID_5_)" d="M742.2,291.5L428.6,483.4&#10;&#9;&#9;&#9;c-19,12.8-8.1,22.3,6.3,22.2l367.6-2.5L742.2,291.5z"/>
		<g id="XMLID_3370_">
			<path d="M 435 479.5 L 481.5 505.29998779296875 L 496.3999938964844 505.20001220703125 L 442.20001220703125 475.1000061035156 Z" id="XMLID_3376_" fill="#E5B982"/>
			<path d="M 782.2999877929688 432.29998779296875 L 781.5999755859375 429.5 L 779.5 422.20001220703125 L 648 349.20001220703125 L 640.7999877929688 353.6000061035156 L 774 427.6000061035156 Z" id="XMLID_3375_" fill="#E5B982"/>
			<path d="M 799.7999877929688 493.6000061035156 L 785.7000122070312 485.70001220703125 L 604.9000244140625 385.29998779296875 L 596.5999755859375 380.6000061035156 L 593.5999755859375 382.3999938964844 L 589.4000244140625 385 L 758 478.79998779296875 L 801.7000122070312 503.1000061035156 L 802.5999755859375 503.1000061035156 Z" id="XMLID_3374_" fill="#E5B982"/>
			<path d="M 759.0999755859375 350.79998779296875 L 699.5 317.70001220703125 L 692.2000122070312 322.1000061035156 L 761.9000244140625 360.79998779296875 Z" id="XMLID_3373_" fill="#E5B982"/>
			<path d="M 493.70001220703125 443.6000061035156 L 488 447.1000061035156 L 486.5 448 L 588.2000122070312 504.6000061035156 L 603.2000122070312 504.5 L 509.79998779296875 452.5 Z" id="XMLID_3372_" fill="#E5B982"/>
			<path d="M 588.9000244140625 436.3999938964844 L 545.0999755859375 412.1000061035156 L 537.9000244140625 416.5 L 561.2000122070312 429.5 L 678.9000244140625 494.8999938964844 L 695 503.79998779296875 L 710 503.70001220703125 L 706.5999755859375 501.79998779296875 Z" id="XMLID_3371_" fill="#E5B982"/>
		</g>
		<g id="XMLID_3363_">
			<path d="M 673.5999755859375 333.5 L 660.7999877929688 341.29998779296875 L 622.2000122070312 410.79998779296875 L 570 504.70001220703125 L 578.5 504.6000061035156 L 629.5999755859375 412.6000061035156 Z" id="XMLID_3369_" fill="#E5B982"/>
			<path d="M 582.5999755859375 389.20001220703125 L 569.7999877929688 397.1000061035156 L 569.5 397.6000061035156 L 509.70001220703125 505.1000061035156 L 518.2000122070312 505 L 576.9000244140625 399.3999938964844 Z" id="XMLID_3368_" fill="#E5B982"/>
			<path d="M 478.70001220703125 452.79998779296875 L 449.3999938964844 505.5 L 457.79998779296875 505.5 L 491.5 445 Z" id="XMLID_3367_" fill="#E5B982"/>
			<path d="M 747.2000122070312 309.20001220703125 L 744.4000244140625 299.1000061035156 L 674.9000244140625 424 L 630.2999877929688 504.29998779296875 L 638.7000122070312 504.20001220703125 L 682.2999877929688 425.8999938964844 Z" id="XMLID_3366_" fill="#E5B982"/>
			<path d="M 787.7999877929688 452.29998779296875 L 788 451.8999938964844 L 785.0999755859375 441.8999938964844 L 780.4000244140625 450.3999938964844 L 750.9000244140625 503.5 L 759.4000244140625 503.3999938964844 Z" id="XMLID_3365_" fill="#E5B982"/>
			<path d="M 767.5999755859375 380.6000061035156 L 764.7000122070312 370.5 L 727.5999755859375 437.20001220703125 L 690.5999755859375 503.8999938964844 L 699.0999755859375 503.79998779296875 L 735.0999755859375 439.1000061035156 Z" id="XMLID_3364_" fill="#E5B982"/>
		</g>
		<g id="XMLID_3343_">
			<g id="XMLID_3353_">
				<linearGradient id="XMLID_6_" gradientUnits="userSpaceOnUse" x1="842.7509" y1="477.088" x2="842.7509" y2="195.2727">
					<stop offset="0" style="stop-color:#E283AD"/>
					<stop offset="1" style="stop-color:#ECAEC9"/>
				</linearGradient>
				<path id="XMLID_3354_" fill="url(#XMLID_6_)" d="M959,360.8c5.7-22.3-32.8,30.5-50.9-8.9c-22.5-49.1-47.6-54.1-55.7-42.7&#10;&#9;&#9;&#9;&#9;&#9;c0,0-15.9-48-45.5-24.3c0,0-19.7-30.5-40.9,4.9c0,0-15.7-33.9-35.7-1c-20,33,32.4,201.6,55.2,218.9&#10;&#9;&#9;&#9;&#9;&#9;c22.9,17.2,27.7-6.5,24.7-18.9c0,0,42.5,9.5,47.2-29.5c0,0,32.6,0.1,26-34.9C899.3,443.2,941.1,431.9,959,360.8L959,360.8z"/>
			</g>
			<linearGradient id="XMLID_7_" gradientUnits="userSpaceOnUse" x1="804.5718" y1="496.7255" x2="804.5718" y2="385.4233">
				<stop offset="0" style="stop-color:#E283AD"/>
				<stop offset="1" style="stop-color:#ECAEC9"/>
			</linearGradient>
			<path id="XMLID_3352_" fill="url(#XMLID_7_)" d="M852.4,309.2c0,0-15.9-48-45.5-24.3c0,0-19.7-30.5-40.9,4.9&#10;&#9;&#9;&#9;&#9;c0,0-15.7-33.9-35.7-1c-20,33,32.4,201.6,55.2,218.9c-23.4-29.4-49.3-134.6-54.3-175.8c-5-41.3,9.5-44.6,19.2-39.8&#10;&#9;&#9;&#9;&#9;c7.3,3.6,21.9,106.6,40.9,152.1c19,45.5,15.8,31.5-8.6-56.6c-24.4-88.1-7.1-105.1-0.5-104.4c6.6,0.7,14.5,15.5,30.5,92.4&#10;&#9;&#9;&#9;&#9;c16,77,51.6,97.2,31.9,62.3s-44.3-142.7-33.9-152c10.4-9.2,25.6,3.1,37.8,40c12.3,36.9,31.4,73.4,20.1,30.8&#10;&#9;&#9;&#9;&#9;c-11.3-42.6-0.5-51.9,14.6-42.5C869.4,301.3,857.5,302,852.4,309.2z"/>
			<path id="XMLID_3351_" opacity="0.11" fill="#FFFFFF" d="M950.6,370.6c-3.2-4.1-24.6,30.3-37.9,28.9&#10;&#9;&#9;&#9;&#9;c-13.3-1.4-18.9-56.4-26.1-60.9c-7.1-4.5-1.4,58.3,12.4,76.4C912.7,433.2,957.3,379.3,950.6,370.6z"/>
			<path id="XMLID_3350_" opacity="0.11" fill="#FFFFFF" d="M874.1,427.8c-6.3-4.9-15.4-7.5-23.8-41c-8.5-33.4-19.3-76.6-28.6-76.1&#10;&#9;&#9;&#9;&#9;c-9.3,0.5,24.7,125.9,39.1,134.2C875.3,453.3,882.4,434.2,874.1,427.8z"/>
			<path id="XMLID_3349_" opacity="0.11" fill="#FFFFFF" d="M841.5,456.1c-6.6-6.2-16-9.9-26.4-50.6c-10.4-40.7-23.7-93.2-33.1-93.2&#10;&#9;&#9;&#9;&#9;c-9.4,0.1,31.9,152.9,46.9,163.7C844.1,486.9,850.2,464.2,841.5,456.1z"/>
			<path id="XMLID_3348_" opacity="0.11" fill="#FFFFFF" d="M743.8,314.5c-10.1-2.8,31.6,176,45.3,182.7&#10;&#9;&#9;&#9;&#9;C802.7,504,753.9,317.3,743.8,314.5z"/>
		</g>
	</g>
	<g id="XMLID_3324_">
		<path d="M 227.300003 903.099976 H 1196.800003 V 1010.699974 H 227.300003 V 903.099976 Z" id="XMLID_74_" fill="#2A3E4D"/>
		<g id="XMLID_3262_">
			<linearGradient id="XMLID_8_" gradientUnits="userSpaceOnUse" x1="1082.4706" y1="1099.447" x2="1082.4706" y2="948.2682">
				<stop offset="0" style="stop-color:#304352"/>
				<stop offset="1" style="stop-color:#566672"/>
			</linearGradient>
			<path d="M 1164.099998 1026.099976 A 81.599998 81.599998 0 0 1 1082.5 1107.699974 A 81.599998 81.599998 0 0 1 1000.900002 1026.099976 A 81.599998 81.599998 0 0 1 1082.5 944.499977 A 81.599998 81.599998 0 0 1 1164.099998 1026.099976 Z" id="XMLID_3256_" fill="url(#XMLID_8_)"/>
			<linearGradient id="XMLID_9_" gradientUnits="userSpaceOnUse" x1="1082.4706" y1="998.6697" x2="1082.4706" y2="1104.894">
				<stop offset="5.913978e-002" style="stop-color:#2A3E4D"/>
				<stop offset="0.5323" style="stop-color:#304352"/>
				<stop offset="1" style="stop-color:#566672"/>
			</linearGradient>
			<path d="M 1128.700001 1026.099976 A 46.200001 46.200001 0 0 1 1082.5 1072.299976 A 46.200001 46.200001 0 0 1 1036.299999 1026.099976 A 46.200001 46.200001 0 0 1 1082.5 979.899975 A 46.200001 46.200001 0 0 1 1128.700001 1026.099976 Z" id="XMLID_3257_" fill="url(#XMLID_9_)"/>
			<linearGradient id="XMLID_10_" gradientUnits="userSpaceOnUse" x1="1082.4706" y1="1088.3019" x2="1082.4706" y2="979.53">
				<stop offset="4.301075e-002" style="stop-color:#8A959D"/>
				<stop offset="1" style="stop-color:#D5D9DC"/>
			</linearGradient>
			<path d="M 1122.099998 1026.099976 A 39.599998 39.599998 0 0 1 1082.5 1065.699974 A 39.599998 39.599998 0 0 1 1042.900002 1026.099976 A 39.599998 39.599998 0 0 1 1082.5 986.499977 A 39.599998 39.599998 0 0 1 1122.099998 1026.099976 Z" id="XMLID_3258_" fill="url(#XMLID_10_)"/>
			<path d="M 1097.9 1026.099976 A 15.4 15.4 0 0 1 1082.5 1041.499975 A 15.4 15.4 0 0 1 1067.1 1026.099976 A 15.4 15.4 0 0 1 1082.5 1010.699976 A 15.4 15.4 0 0 1 1097.9 1026.099976 Z" id="XMLID_3259_" fill="#566672"/>
			<linearGradient id="XMLID_11_" gradientUnits="userSpaceOnUse" x1="1082.4706" y1="1088.3019" x2="1082.4706" y2="979.53">
				<stop offset="4.301075e-002" style="stop-color:#8A959D"/>
				<stop offset="1" style="stop-color:#D5D9DC"/>
			</linearGradient>
			<path d="M 1092.7 1026.099976 A 10.2 10.2 0 0 1 1082.5 1036.299975 A 10.2 10.2 0 0 1 1072.3 1026.099976 A 10.2 10.2 0 0 1 1082.5 1015.899976 A 10.2 10.2 0 0 1 1092.7 1026.099976 Z" id="XMLID_3260_" fill="url(#XMLID_11_)"/>
			<g id="XMLID_3261_">
				<path id="XMLID_3263_" fill="#425461" d="M1082.7,1061.6h-0.3c-6.4,0-12.8-1.7-18.3-5.1c-3-1.8-4-5.7-2.2-8.7&#10;&#9;&#9;&#9;&#9;&#9;c1.8-3,5.7-4,8.7-2.2c3.5,2.1,7.5,3.2,11.6,3.3l0.2,0c3.5,0,6.3,2.8,6.3,6.3c0,3.4-2.6,6.1-5.9,6.3L1082.7,1061.6z&#10;&#9;&#9;&#9;&#9;&#9; M1107.5,1047.5c-1.1,0-2.2-0.3-3.3-0.9c-3-1.8-4-5.7-2.2-8.7c2.1-3.5,3.3-7.6,3.3-11.8v-0.1c0-3.5,2.8-6.3,6.3-6.3&#10;&#9;&#9;&#9;&#9;&#9;s6.3,2.8,6.3,6.3v0.1c0,6.5-1.8,12.8-5.1,18.3C1111.7,1046.4,1109.6,1047.5,1107.5,1047.5z M1053.3,1032.5&#10;&#9;&#9;&#9;&#9;&#9;c-3.5,0-6.3-2.8-6.3-6.3v-0.1c0-6.4,1.7-12.7,5-18.2c1.8-3,5.7-4,8.7-2.2c3,1.8,4,5.7,2.2,8.7c-2.1,3.5-3.2,7.6-3.2,11.7&#10;&#9;&#9;&#9;&#9;&#9;C1059.6,1029.6,1056.8,1032.5,1053.3,1032.5z M1097.4,1007.4c-1.1,0-2.2-0.3-3.2-0.9c-3.5-2.1-7.6-3.2-11.7-3.2h-0.1&#10;&#9;&#9;&#9;&#9;&#9;c-3.5,0-6.3-2.8-6.3-6.3c0-3.5,2.8-6.3,6.3-6.3h0.1c6.4,0,12.7,1.7,18.2,5c3,1.8,4,5.7,2.2,8.7&#10;&#9;&#9;&#9;&#9;&#9;C1101.7,1006.3,1099.6,1007.4,1097.4,1007.4z"/>
			</g>
		</g>
		<g id="XMLID_3269_">
			<linearGradient id="XMLID_12_" gradientUnits="userSpaceOnUse" x1="397.4" y1="1099.447" x2="397.4" y2="948.2682">
				<stop offset="0" style="stop-color:#304352"/>
				<stop offset="1" style="stop-color:#566672"/>
			</linearGradient>
			<path d="M 478.999992 1026.099976 A 81.599998 81.599998 0 0 1 397.399994 1107.699974 A 81.599998 81.599998 0 0 1 315.799995 1026.099976 A 81.599998 81.599998 0 0 1 397.399994 944.499977 A 81.599998 81.599998 0 0 1 478.999992 1026.099976 Z" id="XMLID_3280_" fill="url(#XMLID_12_)"/>
			<linearGradient id="XMLID_13_" gradientUnits="userSpaceOnUse" x1="397.4" y1="998.6697" x2="397.4" y2="1104.894">
				<stop offset="5.913978e-002" style="stop-color:#2A3E4D"/>
				<stop offset="0.5323" style="stop-color:#304352"/>
				<stop offset="1" style="stop-color:#566672"/>
			</linearGradient>
			<path d="M 443.599995 1026.099976 A 46.200001 46.200001 0 0 1 397.399994 1072.299976 A 46.200001 46.200001 0 0 1 351.199993 1026.099976 A 46.200001 46.200001 0 0 1 397.399994 979.899975 A 46.200001 46.200001 0 0 1 443.599995 1026.099976 Z" id="XMLID_3279_" fill="url(#XMLID_13_)"/>
			<linearGradient id="XMLID_14_" gradientUnits="userSpaceOnUse" x1="397.4" y1="1088.3019" x2="397.4" y2="979.53">
				<stop offset="4.301075e-002" style="stop-color:#8A959D"/>
				<stop offset="1" style="stop-color:#D5D9DC"/>
			</linearGradient>
			<path d="M 436.999992 1026.099976 A 39.599998 39.599998 0 0 1 397.399994 1065.699974 A 39.599998 39.599998 0 0 1 357.799995 1026.099976 A 39.599998 39.599998 0 0 1 397.399994 986.499977 A 39.599998 39.599998 0 0 1 436.999992 1026.099976 Z" id="XMLID_3278_" fill="url(#XMLID_14_)"/>
			<path d="M 412.799994 1026.099976 A 15.4 15.4 0 0 1 397.399994 1041.499975 A 15.4 15.4 0 0 1 381.999994 1026.099976 A 15.4 15.4 0 0 1 397.399994 1010.699976 A 15.4 15.4 0 0 1 412.799994 1026.099976 Z" id="XMLID_3277_" fill="#566672"/>
			<linearGradient id="XMLID_15_" gradientUnits="userSpaceOnUse" x1="397.4" y1="1088.3019" x2="397.4" y2="979.53">
				<stop offset="4.301075e-002" style="stop-color:#8A959D"/>
				<stop offset="1" style="stop-color:#D5D9DC"/>
			</linearGradient>
			<path d="M 407.599994 1026.099976 A 10.2 10.2 0 0 1 397.399994 1036.299975 A 10.2 10.2 0 0 1 387.199994 1026.099976 A 10.2 10.2 0 0 1 397.399994 1015.899976 A 10.2 10.2 0 0 1 407.599994 1026.099976 Z" id="XMLID_3276_" fill="url(#XMLID_15_)"/>
			<g id="XMLID_3270_">
				<path id="XMLID_3271_" fill="#425461" d="M397.7,1061.6h-0.3c-6.4,0-12.8-1.7-18.3-5.1c-3-1.8-4-5.7-2.2-8.7&#10;&#9;&#9;&#9;&#9;&#9;c1.8-3,5.7-4,8.7-2.2c3.5,2.1,7.5,3.2,11.6,3.3l0.2,0c3.5,0,6.3,2.8,6.3,6.3c0,3.4-2.6,6.1-5.9,6.3L397.7,1061.6z M422.4,1047.5&#10;&#9;&#9;&#9;&#9;&#9;c-1.1,0-2.2-0.3-3.3-0.9c-3-1.8-4-5.7-2.2-8.7c2.1-3.5,3.3-7.6,3.3-11.8v-0.1c0-3.5,2.8-6.3,6.3-6.3s6.3,2.8,6.3,6.3v0.1&#10;&#9;&#9;&#9;&#9;&#9;c0,6.5-1.8,12.8-5.1,18.3C426.6,1046.4,424.5,1047.5,422.4,1047.5z M368.2,1032.5c-3.5,0-6.3-2.8-6.3-6.3v-0.1&#10;&#9;&#9;&#9;&#9;&#9;c0-6.4,1.7-12.7,5-18.2c1.8-3,5.7-4,8.7-2.2c3,1.8,4,5.7,2.2,8.7c-2.1,3.5-3.2,7.6-3.2,11.7&#10;&#9;&#9;&#9;&#9;&#9;C374.5,1029.6,371.7,1032.5,368.2,1032.5z M412.4,1007.4c-1.1,0-2.2-0.3-3.2-0.9c-3.5-2.1-7.6-3.2-11.7-3.2h-0.1&#10;&#9;&#9;&#9;&#9;&#9;c-3.5,0-6.3-2.8-6.3-6.3c0-3.5,2.8-6.3,6.3-6.3h0.1c6.4,0,12.7,1.7,18.2,5c3,1.8,4,5.7,2.2,8.7&#10;&#9;&#9;&#9;&#9;&#9;C416.6,1006.3,414.5,1007.4,412.4,1007.4z"/>
			</g>
		</g>
		<linearGradient id="XMLID_16_" gradientUnits="userSpaceOnUse" x1="717.2938" y1="1086.2877" x2="717.2938" y2="791.3799">
			<stop offset="0" style="stop-color:#C1C7CB"/>
			<stop offset="1" style="stop-color:#FFFFFF"/>
		</linearGradient>
		<path id="XMLID_3290_" fill="url(#XMLID_16_)" d="M1271.8,833.5v192.6h-75.6c-9.9,0-18.3-7.2-20-17c-8-44.8-47.2-78.9-94.3-78.9&#10;&#9;&#9;&#9;c-28.2,0-53.6,12.2-71.1,31.6c-2.5,2.8-24.2,28.7-39.5,47c-9.5,11.4-23.5,17.9-38.3,17.9H492.4c0-0.2,0-0.5,0-0.7&#10;&#9;&#9;&#9;c0-52.9-42.9-95.9-95.8-95.9s-95.8,42.9-95.8,95.9c0,0.2,0,0.5,0,0.7H162.8v-491c0-4.3,0.7-8.4,2-12.3&#10;&#9;&#9;&#9;c5.1-14.8,19.1-25.4,35.7-25.4h836c15.9,0,30.1,10,35.5,25l0.2,0.4l89.7,251.2l92.5,34C1264.8,812.5,1271.8,822.4,1271.8,833.5z"/>
		<linearGradient id="XMLID_17_" gradientUnits="userSpaceOnUse" x1="644.7625" y1="571.251" x2="1197.6348" y2="1021.4039">
			<stop offset="0" style="stop-color:#C1C7CB"/>
			<stop offset="1" style="stop-color:#FFFFFF;stop-opacity:0"/>
		</linearGradient>
		<path id="XMLID_3282_" fill="url(#XMLID_17_)" d="M825.9,582.7h184.3c4.2,0,7.6,3.4,7.6,7.6v330.2c0,1.7-0.6,3.4-1.7,4.8&#10;&#9;&#9;&#9;l-62.5,76.8c-1.4,1.8-3.6,2.8-5.9,2.8H825.9c-4.2,0-7.6-3.4-7.6-7.6v-407C818.4,586.1,821.7,582.7,825.9,582.7z"/>
		<linearGradient id="XMLID_18_" gradientUnits="userSpaceOnUse" x1="554.722" y1="300.7624" x2="554.722" y2="876.2006">
			<stop offset="0" style="stop-color:#C1C7CB"/>
			<stop offset="1" style="stop-color:#FFFFFF;stop-opacity:0"/>
		</linearGradient>
		<path d="M 266.70001220703125 588.7999877929688 L 397.3999938964844 882.5999755859375 L 842.7999877929688 882.5999755859375 L 731.5999755859375 563.9000244140625 Z" id="XMLID_154_" fill="url(#XMLID_18_)"/>
		<g id="XMLID_3314_">
			<defs>
				<path id="XMLID_3313_" d="M1272.4,833.5v192.6h-75.6c-9.9,0-18.3-7.2-20-17c-8-44.8-47.2-78.9-94.3-78.9&#10;&#9;&#9;&#9;&#9;&#9;c-28.2,0-53.6,12.2-71.1,31.6c-2.5,2.8-24.2,28.7-39.5,47c-9.5,11.4-23.5,17.9-38.3,17.9H493.1c0-0.2,0-0.5,0-0.7&#10;&#9;&#9;&#9;&#9;&#9;c0-52.9-42.9-95.9-95.8-95.9s-95.8,42.9-95.8,95.9c0,0.2,0,0.5,0,0.7H163.5v-491c0-4.3,0.7-8.4,2-12.3&#10;&#9;&#9;&#9;&#9;&#9;c5.1-14.8,19.1-25.4,35.7-25.4h836c15.9,0,30.1,10,35.5,25l0.2,0.4l89.7,251.2l92.5,34C1265.5,812.5,1272.4,822.4,1272.4,833.5z&#10;&#9;&#9;&#9;&#9;&#9;"/>
			</defs>
			<clipPath id="XMLID_19_">
				<use overflow="visible" xlink:href="#XMLID_3313_"/>
			</clipPath>
			<g id="XMLID_3311_" clip-path="url(#XMLID_19_)">
				<linearGradient id="XMLID_20_" gradientUnits="userSpaceOnUse" x1="717.957" y1="1027.8757" x2="717.957" y2="898.9507">
					<stop offset="0" style="stop-color:#4FBBBF"/>
					<stop offset="1" style="stop-color:#86D0D3"/>
				</linearGradient>
				<path d="M 163.5 882.599976 H 1272.400024 V 1026.799973 H 163.5 V 882.599976 Z" id="XMLID_3281_" fill="url(#XMLID_20_)"/>
				<linearGradient id="XMLID_21_" gradientUnits="userSpaceOnUse" x1="717.957" y1="1017.8757" x2="717.957" y2="915.1562">
					<stop offset="0" style="stop-color:#E283AD"/>
					<stop offset="1" style="stop-color:#ECAEC9"/>
				</linearGradient>
				<path d="M 163.5 918 H 1272.400024 V 986.599998 H 163.5 V 918 Z" id="XMLID_3309_" fill="url(#XMLID_21_)"/>
				<path d="M 163.5 910.599976 H 1272.400024 V 917.899976 H 163.5 V 910.599976 Z" id="XMLID_3310_" fill="#FFFFFF"/>
				<path d="M 163.5 986.5 H 1272.400024 V 993.8 H 163.5 V 986.5 Z" id="XMLID_3312_" fill="#FFFFFF"/>
			</g>
		</g>
		<linearGradient id="XMLID_22_" gradientUnits="userSpaceOnUse" x1="619.1852" y1="519.3842" x2="619.1852" y2="498.1822">
			<stop offset="0" style="stop-color:#E283AD"/>
			<stop offset="1" style="stop-color:#ECAEC9"/>
		</linearGradient>
		<path id="XMLID_3288_" fill="url(#XMLID_22_)" d="M1072.8,523.5H165.5c5.1-14.8,19.1-25.4,35.7-25.4h836c15.9,0,30.2,10,35.5,25&#10;&#9;&#9;&#9;L1072.8,523.5z"/>
		<g id="XMLID_3283_">
			<linearGradient id="XMLID_23_" gradientUnits="userSpaceOnUse" x1="1085.0961" y1="588.8755" x2="1085.0961" y2="762.6177">
				<stop offset="0.1129" style="stop-color:#566672"/>
				<stop offset="1" style="stop-color:#98A2A9"/>
			</linearGradient>
			<path id="XMLID_198_" fill="url(#XMLID_23_)" d="M1129.6,767.3c-1.9,2.7-4.9,4.2-8.2,4.2h-72.5c-5.6,0-10.1-4.5-10.1-10.1V613.1&#10;&#9;&#9;&#9;&#9;c0-5.6,4.5-10.1,10.1-10.1h22c4.3,0,8.2,2.7,9.6,6.8l2.1,6.1l30,88l18.5,54.2C1132,761.3,1131.5,764.6,1129.6,767.3z"/>
			<path id="XMLID_190_" opacity="0.11" fill="#FFFFFF" d="M1103.4,677.2l-39.5,94.3h-15c-5.6,0-10.1-4.5-10.1-10.1v-43.9&#10;&#9;&#9;&#9;&#9;l42.6-101.5h1.2L1103.4,677.2z"/>
			<path id="XMLID_155_" fill="#8C979F" d="M1070.8,607c2.6,0,4.9,1.7,5.8,4.1l50.5,148.3c0.6,1.9,0.3,3.9-0.8,5.5&#10;&#9;&#9;&#9;&#9;c-1.2,1.6-3,2.5-4.9,2.5h-40.4h-32.1c-3.4,0-6.1-2.7-6.1-6.1V613.1c0-3.4,2.7-6.1,6.1-6.1H1070.8 M1070.8,599h-22&#10;&#9;&#9;&#9;&#9;c-7.8,0-14.1,6.3-14.1,14.1v148.3c0,7.8,6.3,14.1,14.1,14.1h32.1h40.4c9.7,0,16.5-9.5,13.4-18.7l-50.5-148.3&#10;&#9;&#9;&#9;&#9;C1082.2,602.8,1076.9,599,1070.8,599L1070.8,599z"/>
		</g>
		<g id="XMLID_3268_">
			<linearGradient id="XMLID_24_" gradientUnits="userSpaceOnUse" x1="918.1943" y1="584.3438" x2="918.1943" y2="747.5486">
				<stop offset="0.1129" style="stop-color:#566672"/>
				<stop offset="1" style="stop-color:#98A2A9"/>
			</linearGradient>
			<path id="XMLID_209_" fill="url(#XMLID_24_)" d="M996.9,621.1v132.4c0,10-8.1,18.1-18.1,18.1H857.6c-9.6,0-17.5-7.5-18-17&#10;&#9;&#9;&#9;&#9;c0-0.4,0-0.7,0-1.1V621.1c0-10,8.1-18.1,18.1-18.1h121.2c1.1,0,2.1,0.1,3.2,0.3c3.6,0.6,6.8,2.3,9.3,4.7&#10;&#9;&#9;&#9;&#9;C994.7,611.3,996.9,615.9,996.9,621.1z"/>
			<path id="XMLID_188_" opacity="0.11" fill="#FFFFFF" d="M971.1,603l-70.6,168.5h-42.9c-9.6,0-17.5-7.5-18-17L903,603H971.1z"/>
			<path id="XMLID_186_" opacity="0.11" fill="#FFFFFF" d="M991.3,608l-68.5,163.5h-11.3L982,603.3&#10;&#9;&#9;&#9;&#9;C985.5,603.9,988.8,605.6,991.3,608z"/>
			<path id="XMLID_151_" fill="#8C979F" d="M978.8,607c7.7,0,14,6.3,14,14v132.4c0,7.7-6.3,14-14,14H857.6c-7.7,0-14-6.3-14-14&#10;&#9;&#9;&#9;&#9;V621.1c0-7.7,6.3-14,14-14H978.8 M978.8,599H857.6c-12.2,0-22.1,9.9-22.1,22.1v132.4c0,12.2,9.9,22.1,22.1,22.1h121.2&#10;&#9;&#9;&#9;&#9;c12.2,0,22.1-9.9,22.1-22.1V621.1C1000.9,608.9,991,599,978.8,599L978.8,599z"/>
		</g>
		<g id="XMLID_3335_">
			<linearGradient id="XMLID_25_" gradientUnits="userSpaceOnUse" x1="598.1237" y1="635.6989" x2="598.1237" y2="796.5313">
				<stop offset="0.1129" style="stop-color:#566672"/>
				<stop offset="1" style="stop-color:#98A2A9"/>
			</linearGradient>
			<path id="XMLID_3345_" fill="url(#XMLID_25_)" d="M691.1,607H505.2c-10,0-18.2,8.2-18.2,18.2v173.1c0,10,8.2,18.2,18.2,18.2&#10;&#9;&#9;&#9;&#9;h185.9c10,0,18.2-8.2,18.2-18.2V625.2C709.2,615.2,701.1,607,691.1,607z"/>
			<g id="XMLID_3603_">
				<defs>
					<path id="XMLID_3379_" d="M691.1,607H505.2c-10,0-18.2,8.2-18.2,18.2v173.1c0,10,8.2,18.2,18.2,18.2h185.9&#10;&#9;&#9;&#9;&#9;&#9;&#9;c10,0,18.2-8.2,18.2-18.2V625.2C709.2,615.2,701.1,607,691.1,607z"/>
				</defs>
				<clipPath id="XMLID_26_">
					<use overflow="visible" xlink:href="#XMLID_3379_"/>
				</clipPath>
				<g id="XMLID_3500_" clip-path="url(#XMLID_26_)">
					<g id="XMLID_3398_">
						<path id="XMLID_3499_" fill-rule="evenodd" clip-rule="evenodd" fill="#FDCE95" d="M498.8,763.3l12.9,43.1&#10;&#9;&#9;&#9;&#9;&#9;&#9;&#9;c0.9,2.6,2.4,1.7,2.8,0l11.2-43.6L498.8,763.3z"/>
						<path id="XMLID_3498_" fill-rule="evenodd" clip-rule="evenodd" fill="#B7976B" d="M498.8,763.3l26.9-0.5l-1,3.7&#10;&#9;&#9;&#9;&#9;&#9;&#9;&#9;c-3.4,1.7-7.8,2.7-12.7,2.8c-4.5,0.1-8.7-0.6-12-1.9L498.8,763.3z"/>
						<g id="XMLID_3491_">
							<path d="M 511.29998779296875 805.5 L 515.9000244140625 800.9000244140625 L 516.2999877929688 799.0999755859375 L 511.1000061035156 804.5999755859375 Z" id="XMLID_3497_" fill="#E5B982"/>
							<path d="M 516.7000122070312 763 L 516.2999877929688 763 L 515.4000244140625 763 L 502.6000061035156 776.2999877929688 L 502.8999938964844 777.2999877929688 L 515.9000244140625 763.7999877929688 Z" id="XMLID_3496_" fill="#E5B982"/>
							<path d="M 524.5 762.7999877929688 L 523.0999755859375 764.2999877929688 L 505.5 782.5 L 504.70001220703125 783.2999877929688 L 504.79998779296875 783.7000122070312 L 505 784.2999877929688 L 521.4000244140625 767.2999877929688 L 525.7000122070312 762.9000244140625 L 525.7000122070312 762.7999877929688 Z" id="XMLID_3495_" fill="#E5B982"/>
							<path d="M 506.29998779296875 763.2000122070312 L 500.5 769.2000122070312 L 500.79998779296875 770.2000122070312 L 507.6000061035156 763.2000122070312 Z" id="XMLID_3494_" fill="#E5B982"/>
							<path d="M 508.8999938964844 797.5 L 509.20001220703125 798.2999877929688 L 509.20001220703125 798.5 L 519.0999755859375 788.2000122070312 L 519.5999755859375 786.4000244140625 L 510.5 795.9000244140625 Z" id="XMLID_3493_" fill="#E5B982"/>
							<path d="M 511.1000061035156 786 L 506.79998779296875 790.4000244140625 L 507.1000061035156 791.4000244140625 L 509.3999938964844 789 L 520.7999877929688 777.2000122070312 L 522.4000244140625 775.5999755859375 L 522.7999877929688 773.7999877929688 L 522.5 774.0999755859375 Z" id="XMLID_3492_" fill="#E5B982"/>
						</g>
						<g id="XMLID_3484_">
							<path d="M 501.6000061035156 772.7000122070312 L 502.1000061035156 774.5 L 509.1000061035156 781.2000122070312 L 518.5999755859375 790.4000244140625 L 518.7999877929688 789.4000244140625 L 509.5 780.4000244140625 Z" id="XMLID_3490_" fill="#E5B982"/>
							<path d="M 505.29998779296875 785.2999877929688 L 505.79998779296875 787 L 505.8999938964844 787.0999755859375 L 516.7000122070312 797.5 L 517 796.5 L 506.29998779296875 786.2999877929688 Z" id="XMLID_3489_" fill="#E5B982"/>
							<path d="M 509.6000061035156 799.5 L 514.9000244140625 804.7000122070312 L 515.0999755859375 803.7000122070312 L 509 797.7999877929688 Z" id="XMLID_3488_" fill="#E5B982"/>
							<path d="M 501 763.2999877929688 L 499.70001220703125 763.2999877929688 L 512.2999877929688 775.4000244140625 L 520.4000244140625 783.2000122070312 L 520.7000122070312 782.2000122070312 L 512.7999877929688 774.5999755859375 Z" id="XMLID_3487_" fill="#E5B982"/>
							<path d="M 519.2000122070312 763 L 519.2000122070312 762.9000244140625 L 517.9000244140625 763 L 518.7999877929688 763.7999877929688 L 524.0999755859375 768.9000244140625 L 524.4000244140625 767.9000244140625 Z" id="XMLID_3486_" fill="#E5B982"/>
							<path d="M 510.1000061035156 763.0999755859375 L 508.79998779296875 763.0999755859375 L 515.5 769.5999755859375 L 522.2999877929688 776.0999755859375 L 522.5 775.0999755859375 L 516 768.7999877929688 Z" id="XMLID_3485_" fill="#E5B982"/>
						</g>
						<path id="XMLID_3480_" fill-rule="evenodd" clip-rule="evenodd" fill="#A88962" d="M510.5,769.4c-0.4,0-0.8,0-1.2,0l6.1-6.3&#10;&#9;&#9;&#9;&#9;&#9;&#9;&#9;l1.3,0L510.5,769.4z M520.6,768.1c-0.5,0.2-1.1,0.3-1.7,0.4l5.5-5.7l1.2,0l0,0.1L520.6,768.1z M506.3,763.2l1.3,0l-4.9,5.1&#10;&#9;&#9;&#9;&#9;&#9;&#9;&#9;c-0.3-0.1-0.7-0.2-1-0.3L506.3,763.2z"/>
						<path id="XMLID_3476_" fill-rule="evenodd" clip-rule="evenodd" fill="#A88962" d="M516.2,769c-0.4,0.1-0.8,0.1-1.2,0.1&#10;&#9;&#9;&#9;&#9;&#9;&#9;&#9;l-6.3-6l1.3,0L516.2,769z M523.5,767.1c-0.3,0.1-0.6,0.2-0.9,0.4l-4.7-4.5l1.3,0L523.5,767.1z M499.7,763.3l1.3,0l6.1,5.8&#10;&#9;&#9;&#9;&#9;&#9;&#9;&#9;c-0.5-0.1-1-0.1-1.5-0.2L499.7,763.3z"/>
						<g id="XMLID_3468_">
							<g id="XMLID_3474_">
								<path id="XMLID_3475_" fill="#EEBCD6" d="M513.8,739.8c-2.5-1.4,2.6,4.8-2.7,5.7c-6.5,1.1-7.9,3.9-6.8,5.2&#10;&#9;&#9;&#9;&#9;&#9;&#9;&#9;&#9;&#9;c0,0-6.2,0.4-4.3,4.6c0,0-4.2,1.4-0.7,5c0,0-4.5,0.8-1.2,4.2c3.3,3.4,24.9,2.5,27.6,0.3c2.8-2.2,0.1-3.5-1.5-3.5&#10;&#9;&#9;&#9;&#9;&#9;&#9;&#9;&#9;&#9;c0,0,2.5-4.7-2-6.5c0,0,1-3.9-3.3-4.2C521.6,749.5,521.6,744.2,513.8,739.8L513.8,739.8z"/>
							</g>
							<path id="XMLID_3473_" fill="#E2A1C7" d="M504.3,750.8c0,0-6.2,0.4-4.3,4.6c0,0-4.2,1.4-0.7,5c0,0-4.5,0.8-1.2,4.2&#10;&#9;&#9;&#9;&#9;&#9;&#9;&#9;&#9;c3.3,3.4,24.9,2.5,27.6,0.3c-4.2,1.9-17.5,1.6-22.5,0.9s-5-2.5-4.1-3.5c0.7-0.7,13.3,0.8,19.3-0.1c6-0.8,4.2-0.9-7-0.8&#10;&#9;&#9;&#9;&#9;&#9;&#9;&#9;&#9;c-11.2,0.1-12.7-2.5-12.4-3.2c0.3-0.8,2.3-1.2,11.9-0.7c9.6,0.5,13.1-3,8.4-1.8s-18.3,0.8-19-0.8s1.2-2.9,5.9-3.2&#10;&#9;&#9;&#9;&#9;&#9;&#9;&#9;&#9;c4.7-0.3,9.7-1.4,4.3-1.4s-6.1-1.6-4.6-3.1C503.9,748.6,503.6,750,504.3,750.8z"/>
							<path id="XMLID_3472_" fill="#F3D9E8" d="M514.7,741.1c-0.6,0.2,2.8,3.9,2.2,5.4c-0.6,1.5-7.3,0.5-8,1.2&#10;&#9;&#9;&#9;&#9;&#9;&#9;&#9;&#9;c-0.8,0.7,6.9,2,9.4,0.9C520.9,747.6,515.9,740.6,514.7,741.1z"/>
							<path id="XMLID_3471_" fill="#F3D9E8" d="M519,752c-0.8,0.6-1.4,1.6-5.6,1.5c-4.2,0-9.7-0.1-9.9,1c-0.2,1.1,15.7,1,17.1-0.4&#10;&#9;&#9;&#9;&#9;&#9;&#9;&#9;&#9;S520,751.2,519,752z"/>
							<path id="XMLID_3470_" fill="#F3D9E8" d="M521.3,756.7c-0.9,0.6-1.7,1.6-6.8,1.5c-5.1,0-11.8-0.1-12.1,1&#10;&#9;&#9;&#9;&#9;&#9;&#9;&#9;&#9;c-0.3,1.1,19.1,1,20.8-0.4C525.1,757.4,522.6,756,521.3,756.7z"/>
							<path id="XMLID_3469_" fill="#F3D9E8" d="M501.5,763.8c-0.6,1.1,21.8,1.8,23,0.4C525.8,762.8,502.2,762.7,501.5,763.8z"/>
						</g>
						<path id="XMLID_3467_" fill-rule="evenodd" clip-rule="evenodd" fill="#FDCE95" d="M533.2,763.3l12.9,43.1&#10;&#9;&#9;&#9;&#9;&#9;&#9;&#9;c0.9,2.6,2.4,1.7,2.8,0l11.2-43.6L533.2,763.3z"/>
						<path id="XMLID_3466_" fill-rule="evenodd" clip-rule="evenodd" fill="#B7976B" d="M533.2,763.3l26.9-0.5l-1,3.7&#10;&#9;&#9;&#9;&#9;&#9;&#9;&#9;c-3.4,1.7-7.8,2.7-12.7,2.8c-4.5,0.1-8.7-0.6-12-1.9L533.2,763.3z"/>
						<g id="XMLID_3459_">
							<path d="M 545.7999877929688 805.5 L 550.2999877929688 800.9000244140625 L 550.7999877929688 799.0999755859375 L 545.5 804.5999755859375 Z" id="XMLID_3465_" fill="#E5B982"/>
							<path d="M 551.2000122070312 763 L 550.7999877929688 763 L 549.9000244140625 763 L 537.0999755859375 776.2999877929688 L 537.4000244140625 777.2999877929688 L 550.2999877929688 763.7999877929688 Z" id="XMLID_3464_" fill="#E5B982"/>
							<path d="M 559 762.7999877929688 L 557.5999755859375 764.2999877929688 L 540 782.5 L 539.2000122070312 783.2999877929688 L 539.2999877929688 783.7000122070312 L 539.5 784.2999877929688 L 555.9000244140625 767.2999877929688 L 560.0999755859375 762.9000244140625 L 560.2000122070312 762.7999877929688 Z" id="XMLID_3463_" fill="#E5B982"/>
							<path d="M 540.7999877929688 763.2000122070312 L 535 769.2000122070312 L 535.2999877929688 770.2000122070312 L 542.0999755859375 763.2000122070312 Z" id="XMLID_3462_" fill="#E5B982"/>
							<path d="M 543.4000244140625 797.5 L 543.7000122070312 798.2999877929688 L 543.7000122070312 798.5 L 553.5999755859375 788.2000122070312 L 554.0999755859375 786.4000244140625 L 545 795.9000244140625 Z" id="XMLID_3461_" fill="#E5B982"/>
							<path d="M 545.5999755859375 786 L 541.2999877929688 790.4000244140625 L 541.5999755859375 791.4000244140625 L 543.9000244140625 789 L 555.2999877929688 777.2000122070312 L 556.9000244140625 775.5999755859375 L 557.2999877929688 773.7999877929688 L 557 774.0999755859375 Z" id="XMLID_3460_" fill="#E5B982"/>
						</g>
						<g id="XMLID_3452_">
							<path d="M 536.0999755859375 772.7000122070312 L 536.5999755859375 774.5 L 543.5999755859375 781.2000122070312 L 553.0999755859375 790.4000244140625 L 553.2999877929688 789.4000244140625 L 544 780.4000244140625 Z" id="XMLID_3458_" fill="#E5B982"/>
							<path d="M 539.7999877929688 785.2999877929688 L 540.2999877929688 787 L 540.4000244140625 787.0999755859375 L 551.2000122070312 797.5 L 551.5 796.5 L 540.7999877929688 786.2999877929688 Z" id="XMLID_3457_" fill="#E5B982"/>
							<path d="M 544 799.5 L 549.4000244140625 804.7000122070312 L 549.5999755859375 803.7000122070312 L 543.5 797.7999877929688 Z" id="XMLID_3456_" fill="#E5B982"/>
							<path d="M 535.5 763.2999877929688 L 534.2000122070312 763.2999877929688 L 546.7999877929688 775.4000244140625 L 554.9000244140625 783.2000122070312 L 555.2000122070312 782.2000122070312 L 547.2999877929688 774.5999755859375 Z" id="XMLID_3455_" fill="#E5B982"/>
							<path d="M 553.7000122070312 763 L 553.7000122070312 762.9000244140625 L 552.4000244140625 763 L 553.2000122070312 763.7999877929688 L 558.5999755859375 768.9000244140625 L 558.7999877929688 767.9000244140625 Z" id="XMLID_3454_" fill="#E5B982"/>
							<path d="M 544.5999755859375 763.0999755859375 L 543.2999877929688 763.0999755859375 L 550 769.5999755859375 L 556.7000122070312 776.0999755859375 L 557 775.0999755859375 L 550.5 768.7999877929688 Z" id="XMLID_3453_" fill="#E5B982"/>
						</g>
						<path id="XMLID_3448_" fill-rule="evenodd" clip-rule="evenodd" fill="#A88962" d="M545,769.4c-0.4,0-0.8,0-1.2,0l6.1-6.3&#10;&#9;&#9;&#9;&#9;&#9;&#9;&#9;l1.3,0L545,769.4z M555.1,768.1c-0.5,0.2-1.1,0.3-1.7,0.4l5.5-5.7l1.2,0l0,0.1L555.1,768.1z M540.8,763.2l1.3,0l-4.9,5.1&#10;&#9;&#9;&#9;&#9;&#9;&#9;&#9;c-0.3-0.1-0.7-0.2-1-0.3L540.8,763.2z"/>
						<path id="XMLID_3444_" fill-rule="evenodd" clip-rule="evenodd" fill="#A88962" d="M550.7,769c-0.4,0.1-0.8,0.1-1.2,0.1&#10;&#9;&#9;&#9;&#9;&#9;&#9;&#9;l-6.3-6l1.3,0L550.7,769z M558,767.1c-0.3,0.1-0.6,0.2-0.9,0.4l-4.7-4.5l1.3,0L558,767.1z M534.2,763.3l1.3,0l6.1,5.8&#10;&#9;&#9;&#9;&#9;&#9;&#9;&#9;c-0.5-0.1-1-0.1-1.5-0.2L534.2,763.3z"/>
						<g id="XMLID_3442_">
							<path id="XMLID_3443_" fill="#8A3520" d="M548.2,739.8c-2.5-1.4,2.6,4.8-2.7,5.7c-6.5,1.1-7.9,3.9-6.8,5.2&#10;&#9;&#9;&#9;&#9;&#9;&#9;&#9;&#9;c0,0-6.2,0.4-4.3,4.6c0,0-4.2,1.4-0.7,5c0,0-4.5,0.8-1.2,4.2c3.3,3.4,24.9,2.5,27.6,0.3c2.8-2.2,0.1-3.5-1.5-3.5&#10;&#9;&#9;&#9;&#9;&#9;&#9;&#9;&#9;c0,0,2.5-4.7-2-6.5c0,0,1-3.9-3.3-4.2C556.1,749.5,556.1,744.2,548.2,739.8L548.2,739.8z"/>
						</g>
						<path id="XMLID_3441_" fill="#772919" d="M538.8,750.8c0,0-6.2,0.4-4.3,4.6c0,0-4.2,1.4-0.7,5c0,0-4.5,0.8-1.2,4.2&#10;&#9;&#9;&#9;&#9;&#9;&#9;&#9;c3.3,3.4,24.9,2.5,27.6,0.3c-4.2,1.9-17.5,1.6-22.5,0.9c-5-0.7-5-2.5-4.1-3.5c0.7-0.7,13.3,0.8,19.3-0.1c6-0.8,4.2-0.9-7-0.8&#10;&#9;&#9;&#9;&#9;&#9;&#9;&#9;c-11.2,0.1-12.7-2.5-12.4-3.2c0.3-0.8,2.3-1.2,11.9-0.7c9.6,0.5,13.1-3,8.4-1.8c-4.7,1.2-18.3,0.8-19-0.8s1.2-2.9,5.9-3.2&#10;&#9;&#9;&#9;&#9;&#9;&#9;&#9;c4.7-0.3,9.7-1.4,4.3-1.4c-5.4,0-6.1-1.6-4.6-3.1C538.4,748.6,538.1,750,538.8,750.8z"/>
						<path id="XMLID_3440_" fill="#A34C3C" d="M549.1,741.1c-0.6,0.2,2.8,3.9,2.2,5.4c-0.6,1.5-7.3,0.5-8,1.2&#10;&#9;&#9;&#9;&#9;&#9;&#9;&#9;c-0.8,0.7,6.9,2,9.4,0.9C555.4,747.6,550.4,740.6,549.1,741.1z"/>
						<path id="XMLID_3439_" fill="#A34C3C" d="M553.5,752c-0.8,0.6-1.4,1.6-5.6,1.5c-4.2,0-9.7-0.1-9.9,1c-0.2,1.1,15.7,1,17.1-0.4&#10;&#9;&#9;&#9;&#9;&#9;&#9;&#9;C556.6,752.7,554.5,751.2,553.5,752z"/>
						<path id="XMLID_3438_" fill="#A34C3C" d="M555.8,756.7c-0.9,0.6-1.7,1.6-6.8,1.5c-5.1,0-11.8-0.1-12.1,1&#10;&#9;&#9;&#9;&#9;&#9;&#9;&#9;c-0.3,1.1,19.1,1,20.8-0.4C559.5,757.4,557.1,756,555.8,756.7z"/>
						<path id="XMLID_3437_" fill="#A34C3C" d="M536,763.8c-0.6,1.1,21.8,1.8,23,0.4C560.3,762.8,536.7,762.7,536,763.8z"/>
						<g id="XMLID_3405_">
							<path id="XMLID_3436_" fill-rule="evenodd" clip-rule="evenodd" fill="#FDCE95" d="M567.9,763.3l12.9,43.1&#10;&#9;&#9;&#9;&#9;&#9;&#9;&#9;&#9;c0.9,2.6,2.4,1.7,2.8,0l11.2-43.6L567.9,763.3z"/>
							<path id="XMLID_3435_" fill-rule="evenodd" clip-rule="evenodd" fill="#B7976B" d="M567.9,763.3l26.9-0.5l-1,3.7&#10;&#9;&#9;&#9;&#9;&#9;&#9;&#9;&#9;c-3.4,1.7-7.8,2.7-12.7,2.8c-4.5,0.1-8.7-0.6-12-1.9L567.9,763.3z"/>
							<g id="XMLID_3428_">
								<path d="M 580.5 805.5 L 585 800.9000244140625 L 585.5 799.0999755859375 L 580.2000122070312 804.5999755859375 Z" id="XMLID_3434_" fill="#E5B982"/>
								<path d="M 585.7999877929688 763 L 585.5 763 L 584.5 763 L 571.7999877929688 776.2999877929688 L 572.0999755859375 777.2999877929688 L 585 763.7999877929688 Z" id="XMLID_3433_" fill="#E5B982"/>
								<path d="M 593.5999755859375 762.7999877929688 L 592.2000122070312 764.2999877929688 L 574.7000122070312 782.5 L 573.9000244140625 783.2999877929688 L 574 783.7000122070312 L 574.2000122070312 784.2999877929688 L 590.5999755859375 767.2999877929688 L 594.7999877929688 762.9000244140625 L 594.7999877929688 762.7999877929688 Z" id="XMLID_3432_" fill="#E5B982"/>
								<path d="M 575.5 763.2000122070312 L 569.7000122070312 769.2000122070312 L 570 770.2000122070312 L 576.7000122070312 763.2000122070312 Z" id="XMLID_3431_" fill="#E5B982"/>
								<path d="M 578.0999755859375 797.5 L 578.2999877929688 798.2999877929688 L 578.4000244140625 798.5 L 588.2999877929688 788.2000122070312 L 588.7000122070312 786.4000244140625 L 579.7000122070312 795.9000244140625 Z" id="XMLID_3430_" fill="#E5B982"/>
								<path d="M 580.2000122070312 786 L 576 790.4000244140625 L 576.2999877929688 791.4000244140625 L 578.5 789 L 590 777.2000122070312 L 591.5 775.5999755859375 L 592 773.7999877929688 L 591.7000122070312 774.0999755859375 Z" id="XMLID_3429_" fill="#E5B982"/>
							</g>
							<g id="XMLID_3421_">
								<path d="M 570.7000122070312 772.7000122070312 L 571.2000122070312 774.5 L 578.2000122070312 781.2000122070312 L 587.7000122070312 790.4000244140625 L 588 789.4000244140625 L 578.7000122070312 780.4000244140625 Z" id="XMLID_3427_" fill="#E5B982"/>
								<path d="M 574.5 785.2999877929688 L 575 787 L 575 787.0999755859375 L 585.9000244140625 797.5 L 586.0999755859375 796.5 L 575.5 786.2999877929688 Z" id="XMLID_3426_" fill="#E5B982"/>
								<path d="M 578.7000122070312 799.5 L 584 804.7000122070312 L 584.2999877929688 803.7000122070312 L 578.2000122070312 797.7999877929688 Z" id="XMLID_3425_" fill="#E5B982"/>
								<path d="M 570.0999755859375 763.2999877929688 L 568.9000244140625 763.2999877929688 L 581.5 775.4000244140625 L 589.5999755859375 783.2000122070312 L 589.7999877929688 782.2000122070312 L 581.9000244140625 774.5999755859375 Z" id="XMLID_3424_" fill="#E5B982"/>
								<path d="M 588.4000244140625 763 L 588.2999877929688 762.9000244140625 L 587 763 L 587.9000244140625 763.7999877929688 L 593.2000122070312 768.9000244140625 L 593.5 767.9000244140625 Z" id="XMLID_3423_" fill="#E5B982"/>
								<path d="M 579.2000122070312 763.0999755859375 L 578 763.0999755859375 L 584.7000122070312 769.5999755859375 L 591.4000244140625 776.0999755859375 L 591.7000122070312 775.0999755859375 L 585.0999755859375 768.7999877929688 Z" id="XMLID_3422_" fill="#E5B982"/>
							</g>
							<path id="XMLID_3417_" fill-rule="evenodd" clip-rule="evenodd" fill="#A88962" d="M579.7,769.4c-0.4,0-0.8,0-1.2,0l6.1-6.3&#10;&#9;&#9;&#9;&#9;&#9;&#9;&#9;&#9;l1.3,0L579.7,769.4z M589.8,768.1c-0.5,0.2-1.1,0.3-1.7,0.4l5.5-5.7l1.2,0l0,0.1L589.8,768.1z M575.5,763.2l1.3,0l-4.9,5.1&#10;&#9;&#9;&#9;&#9;&#9;&#9;&#9;&#9;c-0.3-0.1-0.7-0.2-1-0.3L575.5,763.2z"/>
							<path id="XMLID_3413_" fill-rule="evenodd" clip-rule="evenodd" fill="#A88962" d="M585.4,769c-0.4,0.1-0.8,0.1-1.2,0.1&#10;&#9;&#9;&#9;&#9;&#9;&#9;&#9;&#9;l-6.3-6l1.3,0L585.4,769z M592.6,767.1c-0.3,0.1-0.6,0.2-0.9,0.4L587,763l1.3,0L592.6,767.1z M568.9,763.3l1.3,0l6.1,5.8&#10;&#9;&#9;&#9;&#9;&#9;&#9;&#9;&#9;c-0.5-0.1-1-0.1-1.5-0.2L568.9,763.3z"/>
							<g id="XMLID_3411_">
								<path id="XMLID_3412_" fill="#F7F8DC" d="M582.9,739.8c-2.5-1.4,2.6,4.8-2.7,5.7c-6.5,1.1-7.9,3.9-6.8,5.2&#10;&#9;&#9;&#9;&#9;&#9;&#9;&#9;&#9;&#9;c0,0-6.2,0.4-4.3,4.6c0,0-4.2,1.4-0.7,5c0,0-4.5,0.8-1.2,4.2c3.3,3.4,24.9,2.5,27.6,0.3c2.8-2.2,0.1-3.5-1.5-3.5&#10;&#9;&#9;&#9;&#9;&#9;&#9;&#9;&#9;&#9;c0,0,2.5-4.7-2-6.5c0,0,1-3.9-3.3-4.2C590.8,749.5,590.8,744.2,582.9,739.8L582.9,739.8z"/>
							</g>
							<path id="XMLID_3410_" fill="#E7E7C7" d="M573.5,750.8c0,0-6.2,0.4-4.3,4.6c0,0-4.2,1.4-0.7,5c0,0-4.5,0.8-1.2,4.2&#10;&#9;&#9;&#9;&#9;&#9;&#9;&#9;&#9;c3.3,3.4,24.9,2.5,27.6,0.3c-4.2,1.9-17.5,1.6-22.5,0.9c-5-0.7-5-2.5-4.1-3.5c0.7-0.7,13.3,0.8,19.3-0.1c6-0.8,4.2-0.9-7-0.8&#10;&#9;&#9;&#9;&#9;&#9;&#9;&#9;&#9;c-11.2,0.1-12.7-2.5-12.4-3.2c0.3-0.8,2.3-1.2,11.9-0.7c9.6,0.5,13.1-3,8.4-1.8c-4.7,1.2-18.3,0.8-19-0.8&#10;&#9;&#9;&#9;&#9;&#9;&#9;&#9;&#9;c-0.8-1.5,1.2-2.9,5.9-3.2c4.7-0.3,9.7-1.4,4.3-1.4s-6.1-1.6-4.6-3.1C573.1,748.6,572.8,750,573.5,750.8z"/>
							<path id="XMLID_3409_" fill="#FFFFFF" d="M583.8,741.1c-0.6,0.2,2.8,3.9,2.2,5.4c-0.6,1.5-7.3,0.5-8,1.2&#10;&#9;&#9;&#9;&#9;&#9;&#9;&#9;&#9;c-0.8,0.7,6.9,2,9.4,0.9C590,747.6,585,740.6,583.8,741.1z"/>
							<path id="XMLID_3408_" fill="#FFFFFF" d="M588.2,752c-0.8,0.6-1.4,1.6-5.6,1.5c-4.2,0-9.7-0.1-9.9,1&#10;&#9;&#9;&#9;&#9;&#9;&#9;&#9;&#9;c-0.2,1.1,15.7,1,17.1-0.4S589.2,751.2,588.2,752z"/>
							<path id="XMLID_3407_" fill="#FFFFFF" d="M590.5,756.7c-0.9,0.6-1.7,1.6-6.8,1.5c-5.1,0-11.8-0.1-12.1,1&#10;&#9;&#9;&#9;&#9;&#9;&#9;&#9;&#9;c-0.3,1.1,19.1,1,20.8-0.4C594.2,757.4,591.7,756,590.5,756.7z"/>
							<path id="XMLID_3406_" fill="#FFFFFF" d="M570.7,763.8c-0.6,1.1,21.8,1.8,23,0.4C594.9,762.8,571.3,762.7,570.7,763.8z"/>
						</g>
						<path id="XMLID_3402_" fill="#ECECE8" d="M493.2,772.7v48.5h108.7v-48.5H493.2z M564.2,814.5l-13.3-15.1h-0.2h-6.5H544&#10;&#9;&#9;&#9;&#9;&#9;&#9;&#9;l-13.3,15.1h-1.3l-13.3-15.1H516h-6.5h-0.2l-9.4,10.7v-30.6h95.3v30.7l-9.5-10.8h-0.2h-6.5h-0.2l-13.3,15.1H564.2z"/>
						<path d="M 512.0999755859375 799.2999877929688 L 507.1000061035156 815.2000122070312 L 499.70001220703125 815.2000122070312 L 499.70001220703125 810 L 509.5 799.2999877929688 Z" id="XMLID_3346_" fill="#DDDDD7"/>
						<path d="M 547.5 799.2999877929688 L 542.5999755859375 814.5 L 530.7999877929688 814.5 L 544 799.2999877929688 Z" id="XMLID_3315_" fill="#DDDDD7"/>
						<path d="M 582.0999755859375 799.2999877929688 L 577.2999877929688 814.5 L 565.4000244140625 814.5 L 578.7000122070312 799.2999877929688 Z" id="XMLID_3399_" fill="#DDDDD7"/>
					</g>
					<g id="XMLID_3501_">
						<path id="XMLID_3602_" fill-rule="evenodd" clip-rule="evenodd" fill="#FDCE95" d="M600.8,763.3l12.9,43.1&#10;&#9;&#9;&#9;&#9;&#9;&#9;&#9;c0.9,2.6,2.4,1.7,2.8,0l11.2-43.6L600.8,763.3z"/>
						<path id="XMLID_3601_" fill-rule="evenodd" clip-rule="evenodd" fill="#B7976B" d="M600.8,763.3l26.9-0.5l-1,3.7&#10;&#9;&#9;&#9;&#9;&#9;&#9;&#9;c-3.4,1.7-7.8,2.7-12.7,2.8c-4.5,0.1-8.7-0.6-12-1.9L600.8,763.3z"/>
						<g id="XMLID_3594_">
							<path d="M 613.2999877929688 805.5 L 617.7999877929688 800.9000244140625 L 618.2999877929688 799.0999755859375 L 613 804.5999755859375 Z" id="XMLID_3600_" fill="#E5B982"/>
							<path d="M 618.7000122070312 763 L 618.2999877929688 763 L 617.4000244140625 763 L 604.5999755859375 776.2999877929688 L 604.9000244140625 777.2999877929688 L 617.9000244140625 763.7999877929688 Z" id="XMLID_3599_" fill="#E5B982"/>
							<path d="M 626.5 762.7999877929688 L 625.0999755859375 764.2999877929688 L 607.5 782.5 L 606.7000122070312 783.2999877929688 L 606.7999877929688 783.7000122070312 L 607 784.2999877929688 L 623.4000244140625 767.2999877929688 L 627.7000122070312 762.9000244140625 L 627.7000122070312 762.7999877929688 Z" id="XMLID_3598_" fill="#E5B982"/>
							<path d="M 608.2999877929688 763.2000122070312 L 602.5 769.2000122070312 L 602.7999877929688 770.2000122070312 L 609.5999755859375 763.2000122070312 Z" id="XMLID_3597_" fill="#E5B982"/>
							<path d="M 610.9000244140625 797.5 L 611.2000122070312 798.2999877929688 L 611.2000122070312 798.5 L 621.0999755859375 788.2000122070312 L 621.5999755859375 786.4000244140625 L 612.5 795.9000244140625 Z" id="XMLID_3596_" fill="#E5B982"/>
							<path d="M 613.0999755859375 786 L 608.7999877929688 790.4000244140625 L 609.0999755859375 791.4000244140625 L 611.4000244140625 789 L 622.7999877929688 777.2000122070312 L 624.4000244140625 775.5999755859375 L 624.7999877929688 773.7999877929688 L 624.5 774.0999755859375 Z" id="XMLID_3595_" fill="#E5B982"/>
						</g>
						<g id="XMLID_3587_">
							<path d="M 603.5999755859375 772.7000122070312 L 604.0999755859375 774.5 L 611.0999755859375 781.2000122070312 L 620.5999755859375 790.4000244140625 L 620.7999877929688 789.4000244140625 L 611.5 780.4000244140625 Z" id="XMLID_3593_" fill="#E5B982"/>
							<path d="M 607.2999877929688 785.2999877929688 L 607.7999877929688 787 L 607.9000244140625 787.0999755859375 L 618.7000122070312 797.5 L 619 796.5 L 608.2999877929688 786.2999877929688 Z" id="XMLID_3592_" fill="#E5B982"/>
							<path d="M 611.5999755859375 799.5 L 616.9000244140625 804.7000122070312 L 617.0999755859375 803.7000122070312 L 611 797.7999877929688 Z" id="XMLID_3591_" fill="#E5B982"/>
							<path d="M 603 763.2999877929688 L 601.7000122070312 763.2999877929688 L 614.2999877929688 775.4000244140625 L 622.4000244140625 783.2000122070312 L 622.7000122070312 782.2000122070312 L 614.7999877929688 774.5999755859375 Z" id="XMLID_3590_" fill="#E5B982"/>
							<path d="M 621.2000122070312 763 L 621.2000122070312 762.9000244140625 L 619.9000244140625 763 L 620.7000122070312 763.7999877929688 L 626.0999755859375 768.9000244140625 L 626.4000244140625 767.9000244140625 Z" id="XMLID_3589_" fill="#E5B982"/>
							<path d="M 612.0999755859375 763.0999755859375 L 610.7999877929688 763.0999755859375 L 617.5 769.5999755859375 L 624.2000122070312 776.0999755859375 L 624.5 775.0999755859375 L 618 768.7999877929688 Z" id="XMLID_3588_" fill="#E5B982"/>
						</g>
						<path id="XMLID_3583_" fill-rule="evenodd" clip-rule="evenodd" fill="#A88962" d="M612.5,769.4c-0.4,0-0.8,0-1.2,0l6.1-6.3&#10;&#9;&#9;&#9;&#9;&#9;&#9;&#9;l1.3,0L612.5,769.4z M622.6,768.1c-0.5,0.2-1.1,0.3-1.7,0.4l5.5-5.7l1.2,0l0,0.1L622.6,768.1z M608.3,763.2l1.3,0l-4.9,5.1&#10;&#9;&#9;&#9;&#9;&#9;&#9;&#9;c-0.3-0.1-0.7-0.2-1-0.3L608.3,763.2z"/>
						<path id="XMLID_3579_" fill-rule="evenodd" clip-rule="evenodd" fill="#A88962" d="M618.2,769c-0.4,0.1-0.8,0.1-1.2,0.1&#10;&#9;&#9;&#9;&#9;&#9;&#9;&#9;l-6.3-6l1.3,0L618.2,769z M625.5,767.1c-0.3,0.1-0.6,0.2-0.9,0.4l-4.7-4.5l1.3,0L625.5,767.1z M601.7,763.3l1.3,0l6.1,5.8&#10;&#9;&#9;&#9;&#9;&#9;&#9;&#9;c-0.5-0.1-1-0.1-1.5-0.2L601.7,763.3z"/>
						<g id="XMLID_3571_">
							<g id="XMLID_3577_">
								<path id="XMLID_3578_" fill="#EEBCD6" d="M615.8,739.8c-2.5-1.4,2.6,4.8-2.7,5.7c-6.5,1.1-7.9,3.9-6.8,5.2&#10;&#9;&#9;&#9;&#9;&#9;&#9;&#9;&#9;&#9;c0,0-6.2,0.4-4.3,4.6c0,0-4.2,1.4-0.7,5c0,0-4.5,0.8-1.2,4.2c3.3,3.4,24.9,2.5,27.6,0.3c2.8-2.2,0.1-3.5-1.5-3.5&#10;&#9;&#9;&#9;&#9;&#9;&#9;&#9;&#9;&#9;c0,0,2.5-4.7-2-6.5c0,0,1-3.9-3.3-4.2C623.6,749.5,623.6,744.2,615.8,739.8L615.8,739.8z"/>
							</g>
							<path id="XMLID_3576_" fill="#E2A1C7" d="M606.3,750.8c0,0-6.2,0.4-4.3,4.6c0,0-4.2,1.4-0.7,5c0,0-4.5,0.8-1.2,4.2&#10;&#9;&#9;&#9;&#9;&#9;&#9;&#9;&#9;c3.3,3.4,24.9,2.5,27.6,0.3c-4.2,1.9-17.5,1.6-22.5,0.9s-5-2.5-4.1-3.5c0.7-0.7,13.3,0.8,19.3-0.1c6-0.8,4.2-0.9-7-0.8&#10;&#9;&#9;&#9;&#9;&#9;&#9;&#9;&#9;c-11.2,0.1-12.7-2.5-12.4-3.2c0.3-0.8,2.3-1.2,11.9-0.7c9.6,0.5,13.1-3,8.4-1.8s-18.3,0.8-19-0.8c-0.8-1.5,1.2-2.9,5.9-3.2&#10;&#9;&#9;&#9;&#9;&#9;&#9;&#9;&#9;c4.7-0.3,9.7-1.4,4.3-1.4s-6.1-1.6-4.6-3.1C605.9,748.6,605.6,750,606.3,750.8z"/>
							<path id="XMLID_3575_" fill="#F3D9E8" d="M616.7,741.1c-0.6,0.2,2.8,3.9,2.2,5.4c-0.6,1.5-7.3,0.5-8,1.2&#10;&#9;&#9;&#9;&#9;&#9;&#9;&#9;&#9;c-0.8,0.7,6.9,2,9.4,0.9C622.9,747.6,617.9,740.6,616.7,741.1z"/>
							<path id="XMLID_3574_" fill="#F3D9E8" d="M621,752c-0.8,0.6-1.4,1.6-5.6,1.5c-4.2,0-9.7-0.1-9.9,1c-0.2,1.1,15.7,1,17.1-0.4&#10;&#9;&#9;&#9;&#9;&#9;&#9;&#9;&#9;C624.1,752.7,622,751.2,621,752z"/>
							<path id="XMLID_3573_" fill="#F3D9E8" d="M623.3,756.7c-0.9,0.6-1.7,1.6-6.8,1.5c-5.1,0-11.8-0.1-12.1,1&#10;&#9;&#9;&#9;&#9;&#9;&#9;&#9;&#9;c-0.3,1.1,19.1,1,20.8-0.4C627.1,757.4,624.6,756,623.3,756.7z"/>
							<path id="XMLID_3572_" fill="#F3D9E8" d="M603.5,763.8c-0.6,1.1,21.8,1.8,23,0.4C627.8,762.8,604.2,762.7,603.5,763.8z"/>
						</g>
						<path id="XMLID_3570_" fill-rule="evenodd" clip-rule="evenodd" fill="#FDCE95" d="M635.2,763.3l12.9,43.1&#10;&#9;&#9;&#9;&#9;&#9;&#9;&#9;c0.9,2.6,2.4,1.7,2.8,0l11.2-43.6L635.2,763.3z"/>
						<path id="XMLID_3569_" fill-rule="evenodd" clip-rule="evenodd" fill="#B7976B" d="M635.2,763.3l26.9-0.5l-1,3.7&#10;&#9;&#9;&#9;&#9;&#9;&#9;&#9;c-3.4,1.7-7.8,2.7-12.7,2.8c-4.5,0.1-8.7-0.6-12-1.9L635.2,763.3z"/>
						<g id="XMLID_3562_">
							<path d="M 647.7999877929688 805.5 L 652.2999877929688 800.9000244140625 L 652.7999877929688 799.0999755859375 L 647.5 804.5999755859375 Z" id="XMLID_3568_" fill="#E5B982"/>
							<path d="M 653.0999755859375 763 L 652.7999877929688 763 L 651.9000244140625 763 L 639.0999755859375 776.2999877929688 L 639.4000244140625 777.2999877929688 L 652.2999877929688 763.7999877929688 Z" id="XMLID_3567_" fill="#E5B982"/>
							<path d="M 661 762.7999877929688 L 659.5999755859375 764.2999877929688 L 642 782.5 L 641.2000122070312 783.2999877929688 L 641.2999877929688 783.7000122070312 L 641.5 784.2999877929688 L 657.9000244140625 767.2999877929688 L 662.0999755859375 762.9000244140625 L 662.2000122070312 762.7999877929688 Z" id="XMLID_3566_" fill="#E5B982"/>
							<path d="M 642.7999877929688 763.2000122070312 L 637 769.2000122070312 L 637.2999877929688 770.2000122070312 L 644.0999755859375 763.2000122070312 Z" id="XMLID_3565_" fill="#E5B982"/>
							<path d="M 645.4000244140625 797.5 L 645.7000122070312 798.2999877929688 L 645.7000122070312 798.5 L 655.5999755859375 788.2000122070312 L 656.0999755859375 786.4000244140625 L 647 795.9000244140625 Z" id="XMLID_3564_" fill="#E5B982"/>
							<path d="M 647.5999755859375 786 L 643.2999877929688 790.4000244140625 L 643.5999755859375 791.4000244140625 L 645.9000244140625 789 L 657.2999877929688 777.2000122070312 L 658.9000244140625 775.5999755859375 L 659.2999877929688 773.7999877929688 L 659 774.0999755859375 Z" id="XMLID_3563_" fill="#E5B982"/>
						</g>
						<g id="XMLID_3555_">
							<path d="M 638.0999755859375 772.7000122070312 L 638.5999755859375 774.5 L 645.5999755859375 781.2000122070312 L 655 790.4000244140625 L 655.2999877929688 789.4000244140625 L 646 780.4000244140625 Z" id="XMLID_3561_" fill="#E5B982"/>
							<path d="M 641.7999877929688 785.2999877929688 L 642.2999877929688 787 L 642.4000244140625 787.0999755859375 L 653.2000122070312 797.5 L 653.5 796.5 L 642.7999877929688 786.2999877929688 Z" id="XMLID_3560_" fill="#E5B982"/>
							<path d="M 646 799.5 L 651.4000244140625 804.7000122070312 L 651.5999755859375 803.7000122070312 L 645.5 797.7999877929688 Z" id="XMLID_3559_" fill="#E5B982"/>
							<path d="M 637.5 763.2999877929688 L 636.2000122070312 763.2999877929688 L 648.7999877929688 775.4000244140625 L 656.9000244140625 783.2000122070312 L 657.2000122070312 782.2000122070312 L 649.2999877929688 774.5999755859375 Z" id="XMLID_3558_" fill="#E5B982"/>
							<path d="M 655.7000122070312 763 L 655.7000122070312 762.9000244140625 L 654.4000244140625 763 L 655.2000122070312 763.7999877929688 L 660.5999755859375 768.9000244140625 L 660.7999877929688 767.9000244140625 Z" id="XMLID_3557_" fill="#E5B982"/>
							<path d="M 646.5999755859375 763.0999755859375 L 645.2999877929688 763.0999755859375 L 652 769.5999755859375 L 658.7000122070312 776.0999755859375 L 659 775.0999755859375 L 652.5 768.7999877929688 Z" id="XMLID_3556_" fill="#E5B982"/>
						</g>
						<path id="XMLID_3551_" fill-rule="evenodd" clip-rule="evenodd" fill="#A88962" d="M647,769.4c-0.4,0-0.8,0-1.2,0l6.1-6.3&#10;&#9;&#9;&#9;&#9;&#9;&#9;&#9;l1.3,0L647,769.4z M657.1,768.1c-0.5,0.2-1.1,0.3-1.7,0.4l5.5-5.7l1.2,0l0,0.1L657.1,768.1z M642.8,763.2l1.3,0l-4.9,5.1&#10;&#9;&#9;&#9;&#9;&#9;&#9;&#9;c-0.3-0.1-0.7-0.2-1-0.3L642.8,763.2z"/>
						<path id="XMLID_3547_" fill-rule="evenodd" clip-rule="evenodd" fill="#A88962" d="M652.7,769c-0.4,0.1-0.8,0.1-1.2,0.1&#10;&#9;&#9;&#9;&#9;&#9;&#9;&#9;l-6.3-6l1.3,0L652.7,769z M660,767.1c-0.3,0.1-0.6,0.2-0.9,0.4l-4.7-4.5l1.3,0L660,767.1z M636.2,763.3l1.3,0l6.1,5.8&#10;&#9;&#9;&#9;&#9;&#9;&#9;&#9;c-0.5-0.1-1-0.1-1.5-0.2L636.2,763.3z"/>
						<g id="XMLID_3545_">
							<path id="XMLID_3546_" fill="#8A3520" d="M650.2,739.8c-2.5-1.4,2.6,4.8-2.7,5.7c-6.5,1.1-7.9,3.9-6.8,5.2&#10;&#9;&#9;&#9;&#9;&#9;&#9;&#9;&#9;c0,0-6.2,0.4-4.3,4.6c0,0-4.2,1.4-0.7,5c0,0-4.5,0.8-1.2,4.2c3.3,3.4,24.9,2.5,27.6,0.3c2.8-2.2,0.1-3.5-1.5-3.5&#10;&#9;&#9;&#9;&#9;&#9;&#9;&#9;&#9;c0,0,2.5-4.7-2-6.5c0,0,1-3.9-3.3-4.2C658.1,749.5,658.1,744.2,650.2,739.8L650.2,739.8z"/>
						</g>
						<path id="XMLID_3544_" fill="#772919" d="M640.8,750.8c0,0-6.2,0.4-4.3,4.6c0,0-4.2,1.4-0.7,5c0,0-4.5,0.8-1.2,4.2&#10;&#9;&#9;&#9;&#9;&#9;&#9;&#9;c3.3,3.4,24.9,2.5,27.6,0.3c-4.2,1.9-17.5,1.6-22.5,0.9c-5-0.7-5-2.5-4.1-3.5c0.7-0.7,13.3,0.8,19.3-0.1c6-0.8,4.2-0.9-7-0.8&#10;&#9;&#9;&#9;&#9;&#9;&#9;&#9;c-11.2,0.1-12.7-2.5-12.4-3.2c0.3-0.8,2.3-1.2,11.9-0.7c9.6,0.5,13.1-3,8.4-1.8s-18.3,0.8-19-0.8c-0.8-1.5,1.2-2.9,5.9-3.2&#10;&#9;&#9;&#9;&#9;&#9;&#9;&#9;c4.7-0.3,9.7-1.4,4.3-1.4c-5.4,0-6.1-1.6-4.6-3.1C640.4,748.6,640.1,750,640.8,750.8z"/>
						<path id="XMLID_3543_" fill="#A34C3C" d="M651.1,741.1c-0.6,0.2,2.8,3.9,2.2,5.4c-0.6,1.5-7.3,0.5-8,1.2&#10;&#9;&#9;&#9;&#9;&#9;&#9;&#9;c-0.8,0.7,6.9,2,9.4,0.9C657.4,747.6,652.4,740.6,651.1,741.1z"/>
						<path id="XMLID_3542_" fill="#A34C3C" d="M655.5,752c-0.8,0.6-1.4,1.6-5.6,1.5c-4.2,0-9.7-0.1-9.9,1c-0.2,1.1,15.7,1,17.1-0.4&#10;&#9;&#9;&#9;&#9;&#9;&#9;&#9;S656.5,751.2,655.5,752z"/>
						<path id="XMLID_3541_" fill="#A34C3C" d="M657.8,756.7c-0.9,0.6-1.7,1.6-6.8,1.5c-5.1,0-11.8-0.1-12.1,1&#10;&#9;&#9;&#9;&#9;&#9;&#9;&#9;c-0.3,1.1,19.1,1,20.8-0.4C661.5,757.4,659.1,756,657.8,756.7z"/>
						<path id="XMLID_3540_" fill="#A34C3C" d="M638,763.8c-0.6,1.1,21.8,1.8,23,0.4C662.3,762.8,638.7,762.7,638,763.8z"/>
						<g id="XMLID_3508_">
							<path id="XMLID_3539_" fill-rule="evenodd" clip-rule="evenodd" fill="#FDCE95" d="M669.9,763.3l12.9,43.1&#10;&#9;&#9;&#9;&#9;&#9;&#9;&#9;&#9;c0.9,2.6,2.4,1.7,2.8,0l11.2-43.6L669.9,763.3z"/>
							<path id="XMLID_3538_" fill-rule="evenodd" clip-rule="evenodd" fill="#B7976B" d="M669.9,763.3l26.9-0.5l-1,3.7&#10;&#9;&#9;&#9;&#9;&#9;&#9;&#9;&#9;c-3.4,1.7-7.8,2.7-12.7,2.8c-4.5,0.1-8.7-0.6-12-1.9L669.9,763.3z"/>
							<g id="XMLID_3531_">
								<path d="M 682.5 805.5 L 687 800.9000244140625 L 687.5 799.0999755859375 L 682.2000122070312 804.5999755859375 Z" id="XMLID_3537_" fill="#E5B982"/>
								<path d="M 687.7999877929688 763 L 687.5 763 L 686.5 763 L 673.7999877929688 776.2999877929688 L 674.0999755859375 777.2999877929688 L 687 763.7999877929688 Z" id="XMLID_3536_" fill="#E5B982"/>
								<path d="M 695.5999755859375 762.7999877929688 L 694.2000122070312 764.2999877929688 L 676.7000122070312 782.5 L 675.9000244140625 783.2999877929688 L 676 783.7000122070312 L 676.2000122070312 784.2999877929688 L 692.5999755859375 767.2999877929688 L 696.7999877929688 762.9000244140625 L 696.7999877929688 762.7999877929688 Z" id="XMLID_3535_" fill="#E5B982"/>
								<path d="M 677.4000244140625 763.2000122070312 L 671.7000122070312 769.2000122070312 L 671.9000244140625 770.2000122070312 L 678.7000122070312 763.2000122070312 Z" id="XMLID_3534_" fill="#E5B982"/>
								<path d="M 680.0999755859375 797.5 L 680.2999877929688 798.2999877929688 L 680.4000244140625 798.5 L 690.2999877929688 788.2000122070312 L 690.7000122070312 786.4000244140625 L 681.5999755859375 795.9000244140625 Z" id="XMLID_3533_" fill="#E5B982"/>
								<path d="M 682.2000122070312 786 L 678 790.4000244140625 L 678.2999877929688 791.4000244140625 L 680.5 789 L 692 777.2000122070312 L 693.5 775.5999755859375 L 694 773.7999877929688 L 693.7000122070312 774.0999755859375 Z" id="XMLID_3532_" fill="#E5B982"/>
							</g>
							<g id="XMLID_3524_">
								<path d="M 672.7000122070312 772.7000122070312 L 673.2000122070312 774.5 L 680.2000122070312 781.2000122070312 L 689.7000122070312 790.4000244140625 L 690 789.4000244140625 L 680.7000122070312 780.4000244140625 Z" id="XMLID_3530_" fill="#E5B982"/>
								<path d="M 676.4000244140625 785.2999877929688 L 677 787 L 677 787.0999755859375 L 687.9000244140625 797.5 L 688.0999755859375 796.5 L 677.5 786.2999877929688 Z" id="XMLID_3529_" fill="#E5B982"/>
								<path d="M 680.7000122070312 799.5 L 686 804.7000122070312 L 686.2999877929688 803.7000122070312 L 680.2000122070312 797.7999877929688 Z" id="XMLID_3528_" fill="#E5B982"/>
								<path d="M 672.0999755859375 763.2999877929688 L 670.9000244140625 763.2999877929688 L 683.5 775.4000244140625 L 691.5999755859375 783.2000122070312 L 691.7999877929688 782.2000122070312 L 683.9000244140625 774.5999755859375 Z" id="XMLID_3527_" fill="#E5B982"/>
								<path d="M 690.2999877929688 763 L 690.2999877929688 762.9000244140625 L 689 763 L 689.9000244140625 763.7999877929688 L 695.2000122070312 768.9000244140625 L 695.5 767.9000244140625 Z" id="XMLID_3526_" fill="#E5B982"/>
								<path d="M 681.2000122070312 763.0999755859375 L 680 763.0999755859375 L 686.7000122070312 769.5999755859375 L 693.4000244140625 776.0999755859375 L 693.7000122070312 775.0999755859375 L 687.0999755859375 768.7999877929688 Z" id="XMLID_3525_" fill="#E5B982"/>
							</g>
							<path id="XMLID_3520_" fill-rule="evenodd" clip-rule="evenodd" fill="#A88962" d="M681.7,769.4c-0.4,0-0.8,0-1.2,0l6.1-6.3&#10;&#9;&#9;&#9;&#9;&#9;&#9;&#9;&#9;l1.3,0L681.7,769.4z M691.8,768.1c-0.5,0.2-1.1,0.3-1.7,0.4l5.5-5.7l1.2,0l0,0.1L691.8,768.1z M677.4,763.2l1.3,0l-4.9,5.1&#10;&#9;&#9;&#9;&#9;&#9;&#9;&#9;&#9;c-0.3-0.1-0.7-0.2-1-0.3L677.4,763.2z"/>
							<path id="XMLID_3516_" fill-rule="evenodd" clip-rule="evenodd" fill="#A88962" d="M687.4,769c-0.4,0.1-0.8,0.1-1.2,0.1&#10;&#9;&#9;&#9;&#9;&#9;&#9;&#9;&#9;l-6.3-6l1.3,0L687.4,769z M694.6,767.1c-0.3,0.1-0.6,0.2-0.9,0.4L689,763l1.3,0L694.6,767.1z M670.9,763.3l1.3,0l6.1,5.8&#10;&#9;&#9;&#9;&#9;&#9;&#9;&#9;&#9;c-0.5-0.1-1-0.1-1.5-0.2L670.9,763.3z"/>
							<g id="XMLID_3514_">
								<path id="XMLID_3515_" fill="#F7F8DC" d="M684.9,739.8c-2.5-1.4,2.6,4.8-2.7,5.7c-6.5,1.1-7.9,3.9-6.8,5.2&#10;&#9;&#9;&#9;&#9;&#9;&#9;&#9;&#9;&#9;c0,0-6.2,0.4-4.3,4.6c0,0-4.2,1.4-0.7,5c0,0-4.5,0.8-1.2,4.2c3.3,3.4,24.9,2.5,27.6,0.3c2.8-2.2,0.1-3.5-1.5-3.5&#10;&#9;&#9;&#9;&#9;&#9;&#9;&#9;&#9;&#9;c0,0,2.5-4.7-2-6.5c0,0,1-3.9-3.3-4.2C692.8,749.5,692.7,744.2,684.9,739.8L684.9,739.8z"/>
							</g>
							<path id="XMLID_3513_" fill="#E7E7C7" d="M675.4,750.8c0,0-6.2,0.4-4.3,4.6c0,0-4.2,1.4-0.7,5c0,0-4.5,0.8-1.2,4.2&#10;&#9;&#9;&#9;&#9;&#9;&#9;&#9;&#9;c3.3,3.4,24.9,2.5,27.6,0.3c-4.2,1.9-17.5,1.6-22.5,0.9c-5-0.7-5-2.5-4.1-3.5c0.7-0.7,13.3,0.8,19.3-0.1c6-0.8,4.2-0.9-7-0.8&#10;&#9;&#9;&#9;&#9;&#9;&#9;&#9;&#9;c-11.2,0.1-12.7-2.5-12.4-3.2c0.3-0.8,2.3-1.2,11.9-0.7c9.6,0.5,13.1-3,8.4-1.8c-4.7,1.2-18.3,0.8-19-0.8s1.2-2.9,5.9-3.2&#10;&#9;&#9;&#9;&#9;&#9;&#9;&#9;&#9;c4.7-0.3,9.7-1.4,4.3-1.4s-6.1-1.6-4.6-3.1C675.1,748.6,674.8,750,675.4,750.8z"/>
							<path id="XMLID_3512_" fill="#FFFFFF" d="M685.8,741.1c-0.6,0.2,2.8,3.9,2.2,5.4c-0.6,1.5-7.3,0.5-8,1.2&#10;&#9;&#9;&#9;&#9;&#9;&#9;&#9;&#9;c-0.8,0.7,6.9,2,9.4,0.9C692,747.6,687,740.6,685.8,741.1z"/>
							<path id="XMLID_3511_" fill="#FFFFFF" d="M690.2,752c-0.8,0.6-1.4,1.6-5.6,1.5c-4.2,0-9.7-0.1-9.9,1&#10;&#9;&#9;&#9;&#9;&#9;&#9;&#9;&#9;c-0.2,1.1,15.7,1,17.1-0.4S691.2,751.2,690.2,752z"/>
							<path id="XMLID_3510_" fill="#FFFFFF" d="M692.5,756.7c-0.9,0.6-1.7,1.6-6.8,1.5c-5.1,0-11.8-0.1-12.1,1&#10;&#9;&#9;&#9;&#9;&#9;&#9;&#9;&#9;c-0.3,1.1,19.1,1,20.8-0.4C696.2,757.4,693.7,756,692.5,756.7z"/>
							<path id="XMLID_3509_" fill="#FFFFFF" d="M672.7,763.8c-0.6,1.1,21.8,1.8,23,0.4C696.9,762.8,673.3,762.7,672.7,763.8z"/>
						</g>
						<path id="XMLID_3505_" fill="#ECECE8" d="M595.2,772.7v48.5h108.7v-48.5H595.2z M666.2,814.5l-13.3-15.1h-0.2h-6.5H646&#10;&#9;&#9;&#9;&#9;&#9;&#9;&#9;l-13.3,15.1h-1.3l-13.3-15.1H618h-6.5h-0.2l-9.4,10.7v-30.6h95.3v30.7l-9.5-10.8h-0.2h-6.5h-0.2l-13.3,15.1H666.2z"/>
						<path d="M 614.0999755859375 799.2999877929688 L 609.0999755859375 815.2000122070312 L 601.7000122070312 815.2000122070312 L 601.7000122070312 810 L 611.5 799.2999877929688 Z" id="XMLID_3504_" fill="#DDDDD7"/>
						<path d="M 649.5 799.2999877929688 L 644.5999755859375 814.5 L 632.7000122070312 814.5 L 646 799.2999877929688 Z" id="XMLID_3503_" fill="#DDDDD7"/>
						<path d="M 684.0999755859375 799.2999877929688 L 679.2999877929688 814.5 L 667.4000244140625 814.5 L 680.7000122070312 799.2999877929688 Z" id="XMLID_3502_" fill="#DDDDD7"/>
					</g>
				</g>
			</g>
			<path id="XMLID_3401_" fill="#8C979F" d="M691.1,599H505.2c-14.5,0-26.2,11.7-26.2,26.2v173.1c0,14.5,11.7,26.2,26.2,26.2h185.9&#10;&#9;&#9;&#9;&#9;c14.5,0,26.2-11.7,26.2-26.2V625.2C717.3,610.7,705.6,599,691.1,599z M709.2,798.3c0,10-8.2,18.2-18.2,18.2H505.2&#10;&#9;&#9;&#9;&#9;c-10,0-18.2-8.2-18.2-18.2V625.2c0-10,8.2-18.2,18.2-18.2h185.9c10,0,18.2,8.2,18.2,18.2V798.3z"/>
		</g>
		<g id="XMLID_3317_">
			<linearGradient id="XMLID_27_" gradientUnits="userSpaceOnUse" x1="366.2343" y1="610.9348" x2="366.2343" y2="776.7004">
				<stop offset="0.1129" style="stop-color:#566672"/>
				<stop offset="1" style="stop-color:#98A2A9"/>
			</linearGradient>
			<path id="XMLID_3608_" fill="url(#XMLID_27_)" d="M309.1,773.8c-12.1,0-21.9-9.8-21.9-21.9V627.1c0-12.1,9.8-21.9,21.9-21.9&#10;&#9;&#9;&#9;&#9;h114.2c12.1,0,21.9,9.8,21.9,21.9v124.7c0,12.1-9.8,21.9-21.9,21.9H309.1z"/>
			<path id="XMLID_3605_" fill="#8C979F" d="M423.4,607c9.9,0,17.9,8,17.9,17.9v124.7c0,9.9-8,17.9-17.9,17.9H309.1&#10;&#9;&#9;&#9;&#9;c-9.9,0-17.9-8-17.9-17.9V624.9c0-9.9,8-17.9,17.9-17.9H423.4 M423.4,599H309.1c-14.3,0-25.9,11.6-25.9,25.9v124.7&#10;&#9;&#9;&#9;&#9;c0,14.3,11.6,25.9,25.9,25.9h114.2c14.3,0,25.9-11.6,25.9-25.9V624.9C449.3,610.6,437.7,599,423.4,599L423.4,599z"/>
		</g>
		<g id="XMLID_3284_">
			<linearGradient id="XMLID_28_" gradientUnits="userSpaceOnUse" x1="287.8235" y1="1017.8757" x2="287.8235" y2="915.1562">
				<stop offset="0" style="stop-color:#E283AD"/>
				<stop offset="1" style="stop-color:#ECAEC9"/>
			</linearGradient>
			<path id="XMLID_3308_" fill="url(#XMLID_28_)" d="M309,588.8V613c0,11.6-9.5,21-21.1,21c-11.7,0-21.1-9.4-21.1-21v-24.2H309z"/>
			<path d="M 266.700012 563.900024 H 309.000011 V 588.800024 H 266.700012 V 563.900024 Z" id="XMLID_3307_" fill="#F39DC3"/>
			<path id="XMLID_3306_" fill="#86D0D3" d="M351.2,588.8V613c0,11.6-9.5,21-21.1,21c-11.7,0-21.1-9.4-21.1-21v-24.2H351.2z"/>
			<path d="M 309 563.900024 H 351.299999 V 588.800024 H 309 V 563.900024 Z" id="XMLID_3305_" fill="#AEDEE4"/>
			<path id="XMLID_3304_" fill="#D6EDF9" d="M393.5,588.8V613c0,11.6-9.5,21-21.1,21c-11.7,0-21.1-9.4-21.1-21v-24.2H393.5z"/>
			<path d="M 351.200012 563.900024 H 393.500011 V 588.800024 H 351.200012 V 563.900024 Z" id="XMLID_3303_" fill="#FBFBFB"/>
			<linearGradient id="XMLID_29_" gradientUnits="userSpaceOnUse" x1="414.605" y1="1017.8757" x2="414.605" y2="915.1562">
				<stop offset="0" style="stop-color:#E283AD"/>
				<stop offset="1" style="stop-color:#ECAEC9"/>
			</linearGradient>
			<path id="XMLID_3302_" fill="url(#XMLID_29_)" d="M435.7,588.8V613c0,11.6-9.5,21-21.1,21c-11.7,0-21.1-9.4-21.1-21v-24.2H435.7z&#10;&#9;&#9;&#9;&#9;"/>
			<path d="M 393.5 563.900024 H 435.799999 V 588.800024 H 393.5 V 563.900024 Z" id="XMLID_3301_" fill="#F39DC3"/>
			<path id="XMLID_3300_" fill="#86D0D3" d="M478,588.8V613c0,11.6-9.5,21-21.1,21c-11.7,0-21.1-9.4-21.1-21v-24.2H478z"/>
			<path d="M 435.700012 563.900024 H 478.000011 V 588.800024 H 435.700012 V 563.900024 Z" id="XMLID_3299_" fill="#AEDEE4"/>
			<path id="XMLID_3298_" fill="#D6EDF9" d="M520.3,588.8V613c0,11.6-9.5,21-21.1,21c-11.7,0-21.1-9.4-21.1-21v-24.2H520.3z"/>
			<path d="M 478 563.900024 H 520.299999 V 588.800024 H 478 V 563.900024 Z" id="XMLID_3297_" fill="#FBFBFB"/>
			<linearGradient id="XMLID_30_" gradientUnits="userSpaceOnUse" x1="541.3832" y1="1017.8757" x2="541.3832" y2="915.1562">
				<stop offset="0" style="stop-color:#E283AD"/>
				<stop offset="1" style="stop-color:#ECAEC9"/>
			</linearGradient>
			<path id="XMLID_3296_" fill="url(#XMLID_30_)" d="M562.5,588.8V613c0,11.6-9.5,21-21.1,21c-11.7,0-21.1-9.4-21.1-21v-24.2H562.5z&#10;&#9;&#9;&#9;&#9;"/>
			<path d="M 520.299988 563.900024 H 562.599987 V 588.800024 H 520.299988 V 563.900024 Z" id="XMLID_3295_" fill="#F39DC3"/>
			<path id="XMLID_3294_" fill="#86D0D3" d="M604.8,588.8V613c0,11.6-9.5,21-21.1,21c-11.7,0-21.1-9.4-21.1-21v-24.2H604.8z"/>
			<path d="M 562.5 563.900024 H 604.799999 V 588.800024 H 562.5 V 563.900024 Z" id="XMLID_3293_" fill="#AEDEE4"/>
			<path id="XMLID_3292_" fill="#D6EDF9" d="M647,588.8V613c0,11.6-9.5,21-21.1,21s-21.1-9.4-21.1-21v-24.2H647z"/>
			<path d="M 604.799988 563.900024 H 647.099987 V 588.800024 H 604.799988 V 563.900024 Z" id="XMLID_3291_" fill="#FBFBFB"/>
			<linearGradient id="XMLID_31_" gradientUnits="userSpaceOnUse" x1="668.1614" y1="1017.8757" x2="668.1614" y2="915.1562">
				<stop offset="0" style="stop-color:#E283AD"/>
				<stop offset="1" style="stop-color:#ECAEC9"/>
			</linearGradient>
			<path id="XMLID_3289_" fill="url(#XMLID_31_)" d="M689.3,588.8V613c0,11.6-9.5,21-21.1,21s-21.1-9.4-21.1-21v-24.2H689.3z"/>
			<path d="M 647 563.900024 H 689.299999 V 588.800024 H 647 V 563.900024 Z" id="XMLID_3287_" fill="#F39DC3"/>
			<path id="XMLID_3286_" fill="#86D0D3" d="M731.6,588.8V613c0,11.6-9.5,21-21.1,21c-11.7,0-21.1-9.4-21.1-21v-24.2H731.6z"/>
			<path d="M 689.299988 563.900024 H 731.599987 V 588.800024 H 689.299988 V 563.900024 Z" id="XMLID_3285_" fill="#AEDEE4"/>
		</g>
		<linearGradient id="XMLID_32_" gradientUnits="userSpaceOnUse" x1="1278.6615" y1="1068.1598" x2="1278.6615" y2="973.4439">
			<stop offset="4.301075e-002" style="stop-color:#8A959D"/>
			<stop offset="1" style="stop-color:#D5D9DC"/>
		</linearGradient>
		<path id="XMLID_177_" fill="url(#XMLID_32_)" d="M1287.2,1044.8h-17c-8.6,0-15.6-7-15.6-15.6v-41c0-8.6,7-15.6,15.6-15.6h17&#10;&#9;&#9;&#9;c8.6,0,15.6,7,15.6,15.6v41C1302.8,1037.8,1295.8,1044.8,1287.2,1044.8z"/>
		<linearGradient id="XMLID_33_" gradientUnits="userSpaceOnUse" x1="172.9006" y1="1058.0887" x2="172.9006" y2="977.5142">
			<stop offset="4.301075e-002" style="stop-color:#8A959D"/>
			<stop offset="1" style="stop-color:#D5D9DC"/>
		</linearGradient>
		<path id="XMLID_179_" fill="url(#XMLID_33_)" d="M188.8,1044.8H157c-8.6,0-15.6-7-15.6-15.6v-41c0-8.6,7-15.6,15.6-15.6h31.8&#10;&#9;&#9;&#9;c8.6,0,15.6,7,15.6,15.6v41C204.4,1037.8,197.4,1044.8,188.8,1044.8z"/>
		<linearGradient id="XMLID_34_" gradientUnits="userSpaceOnUse" x1="206.9049" y1="955.3642" x2="206.9049" y2="937.2363">
			<stop offset="0" style="stop-color:#FF8300"/>
			<stop offset="1" style="stop-color:#FFAE00"/>
		</linearGradient>
		<path id="XMLID_178_" fill="url(#XMLID_34_)" d="M218.6,956.9h-23.4c-4.8,0-8.7-3.9-8.7-8.7V945c0-4.8,3.9-8.7,8.7-8.7h23.4&#10;&#9;&#9;&#9;c4.8,0,8.7,3.9,8.7,8.7v3.1C227.3,953,223.4,956.9,218.6,956.9z"/>
		<linearGradient id="XMLID_35_" gradientUnits="userSpaceOnUse" x1="1234.0994" y1="955.3642" x2="1234.0994" y2="937.2363">
			<stop offset="0" style="stop-color:#FF8300"/>
			<stop offset="1" style="stop-color:#FFAE00"/>
		</linearGradient>
		<path id="XMLID_181_" fill="url(#XMLID_35_)" d="M1245.8,956.9h-23.4c-4.8,0-8.7-3.9-8.7-8.7V945c0-4.8,3.9-8.7,8.7-8.7h23.4&#10;&#9;&#9;&#9;c4.8,0,8.7,3.9,8.7,8.7v3.1C1254.5,953,1250.6,956.9,1245.8,956.9z"/>
	</g>
	<g id="XMLID_3325_">
		<path id="XMLID_3396_" fill="#F39DC3" d="M219.3,846.8h-9.2l9.3-43.4c-5.6,2.3-8.9,7.1-8.9,13.9c0,3.3,0.8,3.8,0.9,4.3&#10;&#9;&#9;&#9;c-4.4,0-6.8-1.6-6.8-6.2c0-8.5,11.8-16.6,22.4-16.6c0.9,0,1.7,0.1,2.6,0.1L219.3,846.8z"/>
		<path id="XMLID_3394_" fill="#F39DC3" d="M246.6,820.2c0-1.6-0.6-2.6-1.8-2.6c-4,0-8.2,11.7-8.2,18.8c0,4.3,1.5,5.4,4.6,5.4&#10;&#9;&#9;&#9;c5,0,8.1-2.8,11.3-6.5h2.2c-3.6,5.9-9.1,11.8-17.6,11.8c-6,0-10-2.9-10-10.2c0-7.4,4.2-22.8,17.2-22.8c5.7,0,7.1,2.9,7.1,5.9&#10;&#9;&#9;&#9;c0,3.1-1.5,4.7-3.4,4.7c-0.7,0-1.5-0.3-2.2-0.8C246.4,822.6,246.6,821.3,246.6,820.2z"/>
		<path id="XMLID_3391_" fill="#F39DC3" d="M265.1,841.1c2.4,0,5.5-1.6,7.5-3.4c-1.3,7.3-5.9,9.5-11.1,9.5c-5.9,0-9.9-2.9-9.9-10.2&#10;&#9;&#9;&#9;c0-7.4,4.2-22.8,17.3-22.8c5.7,0,7,2.9,7,6.1c0,7.4-7,13-14.7,13.5c-0.1,0.6-0.1,1.3-0.1,1.9C261.1,839.8,262.9,841.1,265.1,841.1&#10;&#9;&#9;&#9;z M269.4,817.6c-3.2,0-6.4,7.1-7.7,13.2c5-0.3,9.3-5.2,9.3-10.5C271,818.6,270.7,817.6,269.4,817.6z"/>
		<path id="XMLID_3385_" fill="#F39DC3" d="M323.3,835.9c-3.4,8.6-12.4,11.9-18.2,11.9c-9.5,0-14-4.2-14-15.7&#10;&#9;&#9;&#9;c0-11.6,5.6-33.2,22.3-33.2c6,0,10.7,2.4,10.7,8.6c0,3.4-1.2,5.9-4.5,5.9c-1,0-2.4-0.3-3.6-1.7c1.5-0.8,2.9-3.5,2.9-5.9&#10;&#9;&#9;&#9;c0-2-1-3.9-3.9-3.9c-7,0-13.3,16.8-13.3,29.8c0,5.9,1.5,10,7.7,10c5,0,9.5-2.4,12.5-6.4L323.3,835.9z"/>
		<path id="XMLID_3344_" fill="#F39DC3" d="M335.1,814.8l-0.8,4c2.2-1.9,4.7-4,7.7-4c2.9,0,4.4,2.4,4.4,4.8c0,2.2-1.5,4.7-4.6,4.7&#10;&#9;&#9;&#9;c-3.6,0-1.8-4.2-3.7-4.2c-1.9,0-3.1,1-4.7,2.4l-5.1,24.3h-9.2l6.8-32H335.1z"/>
		<path id="XMLID_3331_" fill="#F39DC3" d="M358.9,841.8c5,0,8.1-2.8,11.3-6.5h2.2c-3.6,5.9-9.1,11.8-17.6,11.8c-6,0-10-2.9-10-10.2&#10;&#9;&#9;&#9;c0-7.4,4.2-22.8,17.3-22.8c5.7,0,7,2.9,7,6.1c0,7.4-7,13-14.7,13.5c-0.1,0.9-0.1,1.8-0.1,2.6C354.3,840.8,355.8,841.8,358.9,841.8&#10;&#9;&#9;&#9;z M362.6,817.6c-3.3,0-6.4,6.8-7.7,13.2c4.9-0.3,9.3-5.2,9.3-10.5C364.2,818.6,363.8,817.6,362.6,817.6z"/>
		<path id="XMLID_3328_" fill="#F39DC3" d="M400.9,814.8l-4.6,21.7c-0.2,0.8-0.3,1.5-0.3,2c0,1.8,0.8,2.7,2.6,2.7&#10;&#9;&#9;&#9;c2.5,0,4.2-2.8,5.2-6h2.7c-3.6,10.4-9.4,11.8-12.8,11.8c-3.6,0-5.9-2-6.3-5.9c-2,2.9-5,5.9-9.5,5.9c-4.3,0-8.5-2.7-8.5-10.3&#10;&#9;&#9;&#9;c0-8.6,5.3-22.4,16.4-22.4c3.6,0,5.2,1.4,5.2,3.3v0.4l0.7-3.4H400.9z M378.8,836c0,4.9,2,5,3.2,5c1.9,0,4.5-1.9,5.3-5.6l3.1-14.4&#10;&#9;&#9;&#9;c0-0.8-0.6-2.4-2.6-2.4C382.3,818.4,378.8,830,378.8,836z"/>
		<path id="XMLID_3326_" fill="#F39DC3" d="M435.7,820.4c-2.3,0-4,2.7-5,5.9l-4.3,20.5h-9.2l4.7-22.1c0.1-0.5,0.2-1,0.2-1.6&#10;&#9;&#9;&#9;c0-1.4-0.5-2.8-1.9-2.8c-2.5,0-4.2,2.7-5.2,5.9l-4.3,20.5h-9.2l6.8-32h9.2l-0.7,3.3c2.7-3.1,5.6-3.6,7.8-3.6&#10;&#9;&#9;&#9;c3.4,0,5.9,1.5,6.6,5.5c3.1-4.7,6.5-5.4,8.9-5.4c4.1,0,7.1,2.1,7.1,7.2c0,5.2-3.1,12.9-3.1,16.5c0,1.6,0.6,2.7,2.6,2.7&#10;&#9;&#9;&#9;c1.1,0,1.7-0.1,2.1-0.4c-0.6,4.6-3.6,6.6-7,6.6c-4.9,0-6.5-3.6-6.5-7.2c0-4.3,2.9-12.2,2.9-16.3&#10;&#9;&#9;&#9;C438,821.5,437.2,820.4,435.7,820.4z"/>
	</g>
</g>
</svg>